<svg width="36" height="36" viewBox="0 0 36 36" fill="none" xmlns="http://www.w3.org/2000/svg">
<rect width="36" height="36" rx="6" fill="#020707"/>
<path d="M13.75 29C15.82 29 17.5 27.32 17.5 25.25V21.5H13.75C11.68 21.5 10 23.18 10 25.25C10 27.32 11.68 29 13.75 29Z" fill="#0ACF83"/>
<path d="M10 17.75C10 15.68 11.68 14 13.75 14H17.5V21.5H13.75C11.68 21.5 10 19.82 10 17.75Z" fill="#A259FF"/>
<path d="M10 10.25C10 8.18 11.68 6.5 13.75 6.5H17.5V14H13.75C11.68 14 10 12.32 10 10.25Z" fill="#F24E1E"/>
<path d="M17.5 6.5H21.25C23.32 6.5 25 8.18 25 10.25C25 12.32 23.32 14 21.25 14H17.5V6.5Z" fill="#FF7262"/>
<path d="M25 17.75C25 19.82 23.32 21.5 21.25 21.5C19.18 21.5 17.5 19.82 17.5 17.75C17.5 15.68 19.18 14 21.25 14C23.32 14 25 15.68 25 17.75Z" fill="#1ABCFE"/>
</svg>
