<svg width="36" height="36" viewBox="0 0 36 36" fill="none" xmlns="http://www.w3.org/2000/svg">
<rect width="36" height="36" rx="6" fill="black"/>
<g clip-path="url(#clip0_70_16)">
<path fill-rule="evenodd" clip-rule="evenodd" d="M27.9956 11.8924C28.0034 11.9212 28.0074 11.951 28.0075 11.9808V16.6228C28.0075 16.6824 27.9917 16.7409 27.9619 16.7925C27.932 16.844 27.8891 16.8868 27.8374 16.9164L23.9413 19.1596V23.6057C23.9413 23.7267 23.877 23.8384 23.772 23.8993L15.6392 28.5811C15.6206 28.5917 15.6003 28.5984 15.58 28.6056C15.5724 28.6082 15.5652 28.6128 15.5572 28.6149C15.5003 28.6299 15.4405 28.6299 15.3837 28.6149C15.3744 28.6124 15.3659 28.6073 15.357 28.6039C15.3384 28.5972 15.319 28.5913 15.3012 28.5811L7.17008 23.8993C7.11842 23.8697 7.0755 23.8269 7.04564 23.7753C7.01578 23.7238 7.00004 23.6653 7 23.6057V9.67971C7 9.64925 7.00423 9.61964 7.01185 9.59087C7.01438 9.58114 7.02031 9.57225 7.02369 9.56252C7.03004 9.54475 7.03596 9.52656 7.04527 9.51006C7.05162 9.49906 7.06092 9.49018 7.06854 9.48002C7.07827 9.46648 7.08715 9.45252 7.09858 9.44068C7.10831 9.43095 7.121 9.42375 7.132 9.41529C7.14427 9.40514 7.15527 9.39414 7.16923 9.3861L11.2354 7.04521C11.2869 7.01559 11.3453 7 11.4047 7C11.464 7 11.5224 7.01559 11.5739 7.04521L15.6397 9.3861H15.6405C15.654 9.39456 15.6655 9.40514 15.6777 9.41487C15.6887 9.42333 15.701 9.43095 15.7107 9.44025C15.7226 9.45252 15.731 9.46648 15.7412 9.48002C15.7484 9.49018 15.7581 9.49906 15.764 9.51006C15.7738 9.52698 15.7793 9.54475 15.786 9.56252C15.7894 9.57225 15.7953 9.58114 15.7979 9.59129C15.8057 9.62012 15.8097 9.64985 15.8097 9.67971V18.3778L19.1977 16.4269V11.9804C19.1977 11.9508 19.202 11.9208 19.2096 11.8924C19.2125 11.8823 19.218 11.8734 19.2214 11.8636C19.2282 11.8459 19.2341 11.8277 19.2434 11.8112C19.2498 11.8002 19.2591 11.7913 19.2663 11.7811C19.2764 11.7676 19.2849 11.7536 19.2967 11.7418C19.3065 11.7321 19.3187 11.7249 19.3297 11.7164C19.3424 11.7063 19.3534 11.6953 19.367 11.6872L23.4336 9.34633C23.485 9.31667 23.5434 9.30105 23.6028 9.30105C23.6622 9.30105 23.7206 9.31667 23.772 9.34633L27.8378 11.6872C27.8522 11.6957 27.8632 11.7063 27.8759 11.716C27.8865 11.7244 27.8987 11.7321 27.9085 11.7414C27.9203 11.7536 27.9288 11.7676 27.9389 11.7811C27.9465 11.7913 27.9558 11.8002 27.9618 11.8112C27.9715 11.8277 27.977 11.8459 27.9838 11.8636C27.9876 11.8734 27.9931 11.8823 27.9956 11.8924ZM27.3297 16.4269V12.5668L25.9069 13.3859L23.9413 14.5176V18.3778L27.3301 16.4269H27.3297ZM23.2639 23.4098V19.5471L21.3305 20.6514L15.8093 23.8024V27.7015L23.2639 23.4098ZM7.67777 10.2657V23.4098L15.1315 27.7011V23.8029L11.2375 21.5991L11.2363 21.5982L11.2346 21.5974C11.2215 21.5898 11.2105 21.5788 11.1982 21.5694C11.1876 21.561 11.1753 21.5542 11.166 21.5449L11.1652 21.5436C11.1542 21.5331 11.1466 21.5199 11.1373 21.5081C11.1288 21.4967 11.1187 21.4869 11.1119 21.4751L11.1115 21.4738C11.1038 21.4611 11.0992 21.4459 11.0937 21.4315C11.0882 21.4188 11.081 21.407 11.0776 21.3934C11.0734 21.3774 11.0725 21.36 11.0708 21.3435C11.0692 21.3308 11.0658 21.3181 11.0658 21.3054V21.3046V12.2165L9.10058 11.0843L7.67777 10.2657ZM11.4051 7.72975L8.0175 9.67971L11.4042 11.6297L14.7914 9.67929L11.4042 7.72975H11.4051ZM13.1668 19.8991L15.132 18.7678V10.2657L13.7092 11.0848L11.7435 12.2165V20.7186L13.1668 19.8991ZM23.6028 10.0309L20.2157 11.9808L23.6028 13.9308L26.9895 11.9804L23.6028 10.0309ZM23.2639 14.5176L21.2983 13.3859L19.8755 12.5668V16.4269L21.8407 17.5583L23.2639 18.3778V14.5176ZM15.47 23.2165L20.4382 20.3802L22.9217 18.9629L19.537 17.0142L15.6401 19.2578L12.0883 21.3025L15.47 23.2165Z" fill="#FF2D20"/>
</g>
<defs>
<clipPath id="clip0_70_16">
<rect width="21.1538" height="22" fill="white" transform="translate(7 7)"/>
</clipPath>
</defs>
</svg>
