<svg width="36" height="36" viewBox="0 0 36 36" fill="none" xmlns="http://www.w3.org/2000/svg">
<rect width="36" height="36" rx="6" fill="white"/>
<path fill-rule="evenodd" clip-rule="evenodd" d="M27.8532 26.227C27.4355 26.8585 27.1191 27.6361 26.2702 27.6361C24.8414 27.6361 24.764 25.4327 23.3339 25.4327C21.9045 25.4327 21.9819 27.6361 20.5531 27.6361C19.1243 27.6361 19.0469 25.4327 17.6168 25.4327C16.1874 25.4327 16.2648 27.6361 14.8354 27.6361C13.4065 27.6361 13.3291 25.4327 11.8991 25.4327C10.4691 25.4327 10.5477 27.6361 9.11765 27.6361C8.66861 27.6361 8.35287 27.4187 8.08688 27.1202C7.02566 25.265 6.47026 23.1637 6.47624 21.0265C6.47624 14.4986 11.5182 9.20776 17.7378 9.20776C23.9586 9.20776 29 14.4992 29 21.0265C29 22.8921 28.5872 24.6569 27.8532 26.227Z" fill="#FB70A9"/>
<path fill-rule="evenodd" clip-rule="evenodd" d="M27.8532 26.227C27.4355 26.8585 27.1191 27.6361 26.2702 27.6361C24.8414 27.6361 24.764 25.4327 23.3339 25.4327C21.9045 25.4327 21.9819 27.6361 20.5531 27.6361C19.1243 27.6361 19.0469 25.4327 17.6168 25.4327C16.1874 25.4327 16.2648 27.6361 14.8354 27.6361C13.4065 27.6361 13.3291 25.4327 11.8991 25.4327C10.4691 25.4327 10.5477 27.6361 9.11765 27.6361C8.66861 27.6361 8.35287 27.4187 8.08688 27.1202C7.02566 25.265 6.47026 23.1637 6.47624 21.0265C6.47624 14.4986 11.5182 9.20776 17.7378 9.20776C23.9586 9.20776 29 14.4992 29 21.0265C29 22.8921 28.5872 24.6569 27.8532 26.227Z" fill="#FB70A9"/>
<path fill-rule="evenodd" clip-rule="evenodd" d="M25.4169 27.4009C28.3679 23.0106 28.4447 18.1406 25.6454 12.7909C27.8018 14.9989 29.0063 17.9647 29 21.0511C29 22.9099 28.573 24.6692 27.8119 26.2319C27.3789 26.8609 27.0502 27.6362 26.17 27.6362C25.9005 27.6387 25.637 27.5564 25.4169 27.4009Z" fill="#E24CA6"/>
<path fill-rule="evenodd" clip-rule="evenodd" d="M17.134 23.9738C21.0506 23.9738 22.6993 21.7022 22.6993 18.476C22.6993 15.2486 20.2084 12.2792 17.134 12.2792C14.0607 12.2792 11.5692 15.2492 11.5692 18.4754C11.5692 21.7022 13.2173 23.9738 17.134 23.9738Z" fill="white"/>
<path d="M15.6382 18.6585C16.7906 18.6585 17.7249 17.6265 17.7249 16.3549C17.7249 15.0827 16.7912 14.0514 15.6382 14.0514C14.4858 14.0514 13.5515 15.0827 13.5515 16.3549C13.5515 17.6265 14.4852 18.6585 15.6382 18.6585Z" fill="#030776"/>
<path d="M15.2911 16.8863C15.8667 16.8863 16.3341 16.4102 16.3341 15.8236C16.3341 15.2357 15.8673 14.7603 15.2905 14.7603C14.7143 14.7603 14.2468 15.2357 14.2468 15.823C14.2468 16.4102 14.7137 16.8863 15.2911 16.8863Z" fill="white"/>
</svg>
