<svg width="36" height="36" viewBox="0 0 36 36" fill="none" xmlns="http://www.w3.org/2000/svg">
<rect width="36" height="36" rx="6" fill="white"/>
<path d="M11.2881 14.173H16.3144V14.5706H11.7488V17.5629H16.0421V17.9605H11.7488V21.2457H16.3667V21.6433H11.2881V14.173ZM16.7647 14.173H17.2987L19.6653 17.4583L22.0842 14.173L25.3743 10L19.9689 17.8035L22.7543 21.6433H22.1994L19.6653 18.1488L17.1207 21.6433H16.5762L19.3825 17.8035L16.7647 14.173ZM22.9533 14.5706V14.173H28.6812V14.5706H26.0424V21.6433H25.5816V14.5706H22.9533Z" fill="black"/>
<path d="M5 14.173H5.57593L13.5177 26L10.2357 21.6433L5.48169 14.738L5.46074 21.6433H5V14.173Z" fill="black"/>
<path d="M28.6347 21.1257C28.73 21.1257 28.7994 21.0532 28.7994 20.9594C28.7994 20.8656 28.73 20.793 28.6347 20.793C28.5406 20.793 28.47 20.8656 28.47 20.9594C28.47 21.0532 28.5406 21.1257 28.6347 21.1257ZM29.0874 20.688C29.0874 20.9649 29.288 21.1458 29.5805 21.1458C29.8921 21.1458 30.0803 20.9594 30.0803 20.6355V19.4954H29.8293V20.6344C29.8293 20.8142 29.7385 20.9102 29.5783 20.9102C29.4348 20.9102 29.3373 20.8209 29.334 20.688H29.0874ZM30.4087 20.6735C30.4266 20.9616 30.6675 21.1458 31.0261 21.1458C31.4094 21.1458 31.6492 20.9527 31.6492 20.6444C31.6492 20.4021 31.5125 20.2681 31.1808 20.1911L31.0026 20.1475C30.7919 20.0984 30.7068 20.0325 30.7068 19.9175C30.7068 19.7723 30.839 19.6774 31.0373 19.6774C31.2256 19.6774 31.3556 19.7701 31.3791 19.9186H31.6234C31.6089 19.6472 31.3691 19.4563 31.0407 19.4563C30.6877 19.4563 30.4524 19.6472 30.4524 19.9342C30.4524 20.171 30.5857 20.3117 30.8782 20.3798L31.0867 20.43C31.3007 20.4803 31.3948 20.554 31.3948 20.6768C31.3948 20.8198 31.2469 20.9236 31.0452 20.9236C30.8289 20.9236 30.6787 20.8265 30.6575 20.6735H30.4087Z" fill="black"/>
</svg>
