<svg width="36" height="36" viewBox="0 0 36 36" fill="none" xmlns="http://www.w3.org/2000/svg">
<rect width="36" height="36" rx="6" fill="white"/>
<path d="M18.1685 19.898C19.2453 19.898 20.1182 19.0299 20.1182 17.9592C20.1182 16.8884 19.2453 16.0203 18.1685 16.0203C17.0918 16.0203 16.2189 16.8884 16.2189 17.9592C16.2189 19.0299 17.0918 19.898 18.1685 19.898Z" fill="#61DAFB"/>
<path fill-rule="evenodd" clip-rule="evenodd" d="M9.00121 16.939C8.55908 17.3359 8.41375 17.6819 8.41375 17.9591C8.41375 18.2363 8.55908 18.5824 9.00121 18.9793C9.44305 19.3759 10.1223 19.7655 11.0219 20.1071C12.8163 20.7884 15.3428 21.2245 18.1685 21.2245C20.9943 21.2245 23.5208 20.7884 25.3151 20.1071C26.2148 19.7655 26.894 19.3759 27.3359 18.9793C27.778 18.5824 27.9233 18.2363 27.9233 17.9591C27.9233 17.6819 27.778 17.3359 27.3359 16.939C26.894 16.5423 26.2148 16.1528 25.3151 15.8112C23.5208 15.1299 20.9943 14.6938 18.1685 14.6938C15.3428 14.6938 12.8163 15.1299 11.0219 15.8112C10.1223 16.1528 9.44305 16.5423 9.00121 16.939ZM10.5201 14.4895C12.5121 13.7331 15.2164 13.28 18.1685 13.28C21.1206 13.28 23.8249 13.7331 25.817 14.4895C26.8105 14.8667 27.6633 15.3331 28.2803 15.8869C28.8969 16.4405 29.3371 17.1394 29.3371 17.9591C29.3371 18.7788 28.8969 19.4778 28.2803 20.0313C27.6633 20.5852 26.8105 21.0515 25.817 21.4288C23.8249 22.1852 21.1206 22.6383 18.1685 22.6383C15.2164 22.6383 12.5121 22.1852 10.5201 21.4288C9.52658 21.0515 8.67374 20.5852 8.0568 20.0313C7.44015 19.4778 7 18.7788 7 17.9591C7 17.1394 7.44015 16.4405 8.0568 15.8869C8.67374 15.3331 9.52658 14.8667 10.5201 14.4895Z" fill="#61DAFB"/>
<path fill-rule="evenodd" clip-rule="evenodd" d="M14.479 9.55554C13.913 9.37345 13.5371 9.4204 13.2927 9.56073C13.0483 9.70105 12.8194 10.0014 12.695 10.5799C12.5705 11.1584 12.5709 11.9376 12.7231 12.8826C13.0268 14.7675 13.9099 17.1605 15.3223 19.5933C16.7347 22.0261 18.3772 23.9831 19.8668 25.1871C20.6137 25.7907 21.2921 26.1806 21.8581 26.3627C22.4241 26.5448 22.8001 26.4979 23.0445 26.3575C23.2889 26.2172 23.5178 25.9169 23.6422 25.3384C23.7666 24.7599 23.7663 23.9807 23.614 23.0357C23.3103 21.1508 22.4273 18.7578 21.0148 16.325C19.6024 13.8921 17.96 11.9352 16.4703 10.7312C15.7235 10.1276 15.0451 9.73764 14.479 9.55554ZM17.3615 9.63661C19.017 10.9747 20.7644 13.0779 22.2409 15.621C23.7174 18.1642 24.6753 20.7207 25.0128 22.8155C25.1812 23.8603 25.2014 24.8285 25.0275 25.6371C24.8536 26.4456 24.4652 27.172 23.7543 27.5802C23.0435 27.9883 22.2167 27.9596 21.4255 27.7051C20.6345 27.4506 19.8014 26.9491 18.9757 26.2817C17.3201 24.9436 15.5727 22.8403 14.0963 20.2972C12.6198 17.7541 11.6618 15.1976 11.3243 13.1028C11.156 12.0579 11.1357 11.0897 11.3096 10.2812C11.4836 9.47262 11.872 8.74622 12.5828 8.33809C13.2937 7.92996 14.1205 7.95865 14.9116 8.21316C15.7027 8.46765 16.5357 8.9692 17.3615 9.63661Z" fill="#61DAFB"/>
<path fill-rule="evenodd" clip-rule="evenodd" d="M23.6422 10.5799C23.5178 10.0014 23.2889 9.70106 23.0445 9.56074C22.8001 9.42041 22.4241 9.37346 21.8581 9.55555C21.2921 9.73765 20.6137 10.1276 19.8668 10.7312C18.3772 11.9352 16.7348 13.8922 15.3223 16.325C13.9099 18.7578 13.0268 21.1508 12.7232 23.0357C12.5709 23.9807 12.5705 24.7599 12.695 25.3384C12.8194 25.9169 13.0483 26.2172 13.2927 26.3576C13.5371 26.4979 13.9131 26.5448 14.4791 26.3627C15.0451 26.1806 15.7235 25.7907 16.4703 25.1871C17.96 23.9831 19.6024 22.0261 21.0149 19.5933C22.4273 17.1605 23.3104 14.7675 23.614 12.8826C23.7663 11.9376 23.7667 11.1584 23.6422 10.5799ZM25.0128 13.1028C24.6754 15.1976 23.7174 17.7541 22.2409 20.2972C20.7644 22.8403 19.0171 24.9436 17.3615 26.2817C16.5358 26.9491 15.7027 27.4506 14.9116 27.7051C14.1205 27.9596 13.2937 27.9883 12.5829 27.5802C11.872 27.1721 11.4836 26.4457 11.3097 25.6371C11.1358 24.8285 11.156 23.8603 11.3244 22.8155C11.6618 20.7207 12.6198 18.1642 14.0963 15.6211C15.5727 13.0779 17.3201 10.9747 18.9757 9.63662C19.8014 8.96921 20.6345 8.46766 21.4256 8.21317C22.2167 7.95865 23.0435 7.92997 23.7543 8.3381C24.4652 8.74623 24.8536 9.47263 25.0275 10.2812C25.2014 11.0897 25.1812 12.058 25.0128 13.1028Z" fill="#61DAFB"/>
</svg>
