<svg width="36" height="36" viewBox="0 0 36 36" fill="none" xmlns="http://www.w3.org/2000/svg">
<rect width="36" height="36" rx="6" fill="#020707"/>
<path d="M18.5 11C15.4332 11 13.5166 12.5329 12.7499 15.5986C13.9 14.0656 15.2417 13.491 16.7749 13.8741C17.6498 14.0926 18.2751 14.7274 18.9674 15.4297C20.0948 16.5738 21.3997 17.898 24.2501 17.898C27.3166 17.898 29.2335 16.365 30 13.2991C28.8501 14.8321 27.5085 15.407 25.9749 15.0239C25.1003 14.8053 24.4751 14.1706 23.7828 13.4682C22.6554 12.3241 21.3502 11 18.5 11ZM12.7499 17.898C9.68338 17.898 7.76647 19.4309 7 22.4968C8.14986 20.9639 9.49155 20.3889 11.0251 20.7723C11.8997 20.9912 12.5249 21.6257 13.2172 22.3277C14.3446 23.4718 15.6498 24.7962 18.5 24.7962C21.5668 24.7962 23.4834 23.2633 24.2501 20.1974C23.1 21.7303 21.7583 22.3053 20.2251 21.9219C19.3502 21.7036 18.7249 21.0686 18.0326 20.3665C16.9052 19.2224 15.6003 17.898 12.7499 17.898Z" fill="#06B6D4"/>
</svg>
