<svg width="36" height="36" viewBox="0 0 36 36" fill="none" xmlns="http://www.w3.org/2000/svg">
<rect width="36" height="36" rx="6" fill="#343434"/>
<path d="M12.2443 15.091H23.9606V20.5457H12.2443V15.091ZM11.2736 21.9121C11.2736 21.159 11.8841 20.5484 12.6373 20.5484H23.5472C24.3004 20.5484 24.9109 21.159 24.9109 21.9121V24.6394C24.9109 25.3926 24.3004 26.0032 23.5472 26.0032H12.6373C11.8841 26.0032 11.2736 25.3926 11.2736 24.6394V21.9121ZM11.2736 11.0002C11.2736 10.2471 11.8841 9.63652 12.6373 9.63652H23.5472C24.3004 9.63652 24.9109 10.2471 24.9109 11.0002V13.7276C24.9109 14.4807 24.3004 15.0913 23.5472 15.0913H12.6373C11.8841 15.0913 11.2736 14.4807 11.2736 13.7276V11.0002Z" stroke="#3FCF8E" stroke-width="1.2275" stroke-miterlimit="10" stroke-linecap="round" stroke-linejoin="round"/>
</svg>
