<svg width="36" height="36" viewBox="0 0 36 36" fill="none" xmlns="http://www.w3.org/2000/svg">
<rect width="36" height="36" rx="6" fill="#4649E5"/>
<path d="M17.1028 8H23.8373L11.8949 19.2733C11.85 19.4 11.7961 19.6871 11.9398 19.8222C12.0834 19.9573 12.4187 19.8785 12.5683 19.8222C15.5315 17.12 21.5027 11.6311 21.5027 11.6311C21.5027 11.6311 21.822 11.4115 22.0414 11.2933C23.1672 10.6874 24.0357 10.6087 25.3189 10.7867C26.9371 11.0111 27.9831 11.5462 28.9106 12.8133C29.7646 13.9802 29.926 14.957 29.7187 16.36C29.5555 17.4644 28.9106 18.5415 28.5065 18.9778C28.1024 19.4141 19.8864 27 19.8864 27H13.1071L24.9597 15.8956C25.0196 15.7126 25.044 15.4078 24.825 15.2622C24.6084 15.1182 24.2713 15.2904 24.1516 15.3467C21.5326 17.8659 16.2588 22.9129 16.1151 22.9467C15.9355 22.9889 15.8458 23.2 14.5438 23.96C13.5022 24.568 11.6854 24.4385 10.9072 24.2978C10.2188 24.0585 8.97345 23.605 8.16848 22.6933C7.21562 21.6142 7.04607 20.6244 7.00117 19.2733C6.96525 18.1924 7.76441 16.8807 8.16848 16.36L17.1028 8Z" fill="white"/>
</svg>
