<svg width="36" height="36" viewBox="0 0 36 36" fill="none" xmlns="http://www.w3.org/2000/svg">
<rect width="36" height="36" rx="6" fill="#505AE9"/>
<path d="M7.32623 18.5226C7.05466 18.5057 6.789 18.4355 6.54451 18.3161L9.32015 15.5878L10.3296 14.5921C10.0005 14.1295 9.56508 13.7528 9.05999 13.4935C8.55496 13.2343 7.99503 13.1001 7.4273 13.1023C5.71226 13.121 4.17128 14.4424 4.01219 16.1693C3.94653 16.9286 4.1475 17.6871 4.58055 18.3142C4.84037 18.697 5.17092 19.0267 5.55442 19.2856C6.08088 19.6462 6.69857 19.8505 7.33621 19.8751C8.52158 19.9119 9.60339 19.2712 10.2578 18.3466L9.2902 17.4383C9.09411 17.782 8.80707 18.0651 8.46063 18.2564C8.11413 18.4477 7.72165 18.5398 7.32623 18.5226ZM5.36351 16.4363C5.39159 15.3514 6.3168 14.5148 7.33996 14.4599C7.66082 14.4436 7.98105 14.5017 8.27577 14.6296L5.55941 17.3372C5.42244 17.0571 5.35523 16.748 5.36351 16.4363Z" fill="white"/>
<path d="M10.6984 13V19.4615C10.6504 19.5863 10.5992 19.8084 10.515 19.9968C10.4455 20.1486 10.3527 20.2886 10.2399 20.4117C9.81999 20.9008 9.24165 21.0692 9.07071 21.1135L7.97705 21.1248V22.4667H8.83863C8.90101 22.4717 8.95716 22.4742 9.01768 22.4742C9.35339 22.4746 9.68448 22.396 9.98407 22.2446H9.98719C10.0377 22.2234 10.087 22.1997 10.135 22.1747C10.2675 22.1115 10.393 22.0346 10.5094 21.9452C10.5718 21.9084 10.6341 21.8684 10.6965 21.826C10.8005 21.7509 10.8972 21.6663 10.9854 21.5733C11.1845 21.4076 11.3513 21.2067 11.4776 20.9806C11.5988 20.8267 11.6975 20.6564 11.7709 20.4747C11.9674 20.149 12.071 19.7758 12.0703 19.3954V13H10.6984Z" fill="white"/>
<path d="M19.3308 16.3864V16.3209V16.3128C19.3217 16.0687 19.2857 15.8265 19.2235 15.5903C19.0298 14.8632 18.6007 14.2207 18.0033 13.7632C17.4059 13.3056 16.6738 13.0588 15.9213 13.0611C14.0379 13.0611 12.5112 14.5728 12.5112 16.4376C12.5164 17.2718 12.8285 18.0749 13.388 18.6937C13.9474 19.3125 14.7151 19.7037 15.5445 19.7928H19.3115L19.3302 16.5486C19.3302 16.5108 19.3302 16.4727 19.3302 16.4344C19.3321 16.4207 19.3315 16.4014 19.3308 16.3864ZM17.8884 18.5038C17.569 18.5088 16.9844 18.5101 15.8721 18.4864C15.5419 18.4846 15.2174 18.4003 14.9281 18.2412C14.6049 18.0627 14.3356 17.8006 14.1484 17.4823C13.9613 17.164 13.8632 16.8012 13.8644 16.4319C13.8644 15.2965 14.769 14.3769 15.8858 14.3769C16.8004 14.3769 17.4686 15.007 17.73 15.591C17.7302 15.593 17.7302 15.5951 17.73 15.5972C17.8295 15.8236 17.8882 16.0659 17.9034 16.3128C17.8976 17.0435 17.8926 17.7739 17.8884 18.5038Z" fill="white"/>
<path d="M23.7828 14.4418V13.0449H22.7746V13.0749C22.1681 13.0723 21.5789 13.2775 21.1052 13.6563L21.092 13.6644C20.888 13.8032 20.7055 13.9714 20.5505 14.1635C20.2863 14.3967 20.0749 14.6835 19.9305 15.0048C19.786 15.3262 19.7117 15.6747 19.7127 16.0271V19.8483H21.0902V16.0271C21.2073 15.5531 21.48 15.1321 21.8645 14.8313C22.249 14.5305 22.7232 14.3672 23.2114 14.3675C23.4046 14.3673 23.597 14.3929 23.7835 14.4436L23.7828 14.4418Z" fill="white"/>
<path d="M30.9999 16.387V16.3209C30.9999 16.3209 30.9999 16.3153 30.9999 16.3128C30.9906 16.0687 30.9544 15.8264 30.892 15.5903C30.6982 14.8632 30.2692 14.2207 29.6717 13.7632C29.0744 13.3056 28.3423 13.0588 27.5898 13.0611C25.7063 13.0611 24.1797 14.5728 24.1797 16.4376C24.1849 17.2718 24.497 18.0749 25.0564 18.6937C25.6159 19.3125 26.3835 19.7037 27.213 19.7928H30.9806L30.9987 16.5486C30.9987 16.5112 30.9987 16.4731 30.9987 16.4351C31.0005 16.4207 30.9999 16.4014 30.9999 16.387ZM29.5575 18.5038C29.2375 18.5088 28.6529 18.5101 27.5405 18.4864C27.2104 18.4846 26.8859 18.4003 26.5966 18.2412C26.2739 18.0623 26.0052 17.8 25.8187 17.4817C25.6321 17.1634 25.5344 16.8009 25.536 16.4319C25.536 15.2965 26.4406 14.3769 27.5574 14.3769C28.472 14.3769 29.1401 15.007 29.4015 15.591C29.4029 15.5929 29.4039 15.595 29.4047 15.5972C29.5014 15.8242 29.5573 16.0664 29.57 16.3128C29.5658 17.0435 29.5617 17.7739 29.5575 18.5038Z" fill="white"/>
</svg>
