<svg width="48" height="48" viewBox="0 0 48 48" fill="none" xmlns="http://www.w3.org/2000/svg">
<g clip-path="url(#clip0_78_68)">
<rect width="48" height="48" rx="2.93878" fill="#505AE9"/>
<path d="M5 8.8C5 7.80589 5.80589 7 6.8 7H268.7C269.694 7 270.5 7.80589 270.5 8.8V13.9H5V8.8Z" fill="#2F2F2F"/>
<path d="M8.50715 11.5023V9.47728H8.72576V9.71123H8.75261C8.76922 9.68567 8.79224 9.65307 8.82164 9.61344C8.85168 9.57317 8.89451 9.53737 8.95012 9.50605C9.00637 9.47409 9.08244 9.45811 9.17832 9.45811C9.30232 9.45811 9.41163 9.48911 9.50623 9.55111C9.60083 9.61312 9.67466 9.70101 9.72771 9.81478C9.78077 9.92856 9.80729 10.0628 9.80729 10.2175C9.80729 10.3734 9.78077 10.5086 9.72771 10.6231C9.67466 10.7368 9.60115 10.825 9.50719 10.8877C9.41322 10.9497 9.30488 10.9807 9.18215 10.9807C9.08755 10.9807 9.0118 10.965 8.95491 10.9337C8.89802 10.9018 8.85424 10.8656 8.82356 10.8254C8.79288 10.7845 8.76922 10.7506 8.75261 10.7237H8.73343V11.5023H8.50715ZM8.72959 10.2136C8.72959 10.3249 8.74589 10.423 8.77849 10.508C8.81109 10.5924 8.85871 10.6585 8.92136 10.7065C8.984 10.7538 9.0607 10.7774 9.15147 10.7774C9.24607 10.7774 9.32501 10.7525 9.38829 10.7026C9.45222 10.6521 9.50016 10.5844 9.53212 10.4994C9.56472 10.4137 9.58101 10.3185 9.58101 10.2136C9.58101 10.1101 9.56503 10.0168 9.53307 9.93368C9.50175 9.84994 9.45413 9.78378 9.39021 9.7352C9.32693 9.68599 9.24735 9.66138 9.15147 9.66138C9.05942 9.66138 8.98208 9.68471 8.91944 9.73137C8.8568 9.77739 8.80949 9.84195 8.77753 9.92505C8.74557 10.0075 8.72959 10.1037 8.72959 10.2136ZM10.2455 11.5023C10.2071 11.5023 10.1729 11.4991 10.1429 11.4927C10.1128 11.4869 10.0921 11.4812 10.0806 11.4754L10.1381 11.276C10.1931 11.2901 10.2416 11.2952 10.2838 11.2913C10.326 11.2875 10.3634 11.2687 10.396 11.2348C10.4292 11.2015 10.4596 11.1475 10.4871 11.0727L10.5293 10.9577L9.98467 9.47728H10.2301L10.6367 10.6509H10.652L11.0585 9.47728H11.304L10.6788 11.1648C10.6507 11.2409 10.6159 11.3038 10.5743 11.3537C10.5328 11.4042 10.4845 11.4416 10.4296 11.4659C10.3752 11.4901 10.3139 11.5023 10.2455 11.5023ZM12.2431 9.47728V9.66905H11.4799V9.47728H12.2431ZM11.7024 9.12444H11.9287V10.5281C11.9287 10.5921 11.9379 10.64 11.9565 10.672C11.9756 10.7033 11.9999 10.7244 12.0293 10.7352C12.0594 10.7455 12.091 10.7506 12.1242 10.7506C12.1492 10.7506 12.1696 10.7493 12.1856 10.7467C12.2016 10.7435 12.2144 10.741 12.224 10.7391L12.27 10.9423C12.2546 10.9481 12.2332 10.9538 12.2057 10.9596C12.1783 10.966 12.1434 10.9692 12.1012 10.9692C12.0373 10.9692 11.9747 10.9554 11.9133 10.928C11.8526 10.9005 11.8021 10.8586 11.7618 10.8024C11.7222 10.7461 11.7024 10.6752 11.7024 10.5895V9.12444ZM12.8414 10.0641V10.95H12.6152V8.98638H12.8414V9.7074H12.8606C12.8951 9.63133 12.9469 9.57093 13.0159 9.52618C13.0856 9.4808 13.1783 9.45811 13.294 9.45811C13.3943 9.45811 13.4822 9.47824 13.5577 9.51851C13.6331 9.55814 13.6916 9.61919 13.7331 9.70165C13.7753 9.78346 13.7964 9.88765 13.7964 10.0142V10.95H13.5701V10.0296C13.5701 9.91258 13.5398 9.82214 13.479 9.75822C13.419 9.69366 13.3355 9.66138 13.2288 9.66138C13.1546 9.66138 13.0882 9.67704 13.0294 9.70836C12.9712 9.73968 12.9252 9.78538 12.8913 9.84547C12.8581 9.90555 12.8414 9.97842 12.8414 10.0641ZM14.8087 10.9807C14.6757 10.9807 14.5591 10.9491 14.4587 10.8858C14.359 10.8225 14.281 10.734 14.2248 10.6202C14.1691 10.5064 14.1413 10.3734 14.1413 10.2213C14.1413 10.0679 14.1691 9.934 14.2248 9.81958C14.281 9.70516 14.359 9.61631 14.4587 9.55303C14.5591 9.48975 14.6757 9.45811 14.8087 9.45811C14.9416 9.45811 15.058 9.48975 15.1577 9.55303C15.258 9.61631 15.336 9.70516 15.3916 9.81958C15.4479 9.934 15.476 10.0679 15.476 10.2213C15.476 10.3734 15.4479 10.5064 15.3916 10.6202C15.336 10.734 15.258 10.8225 15.1577 10.8858C15.058 10.9491 14.9416 10.9807 14.8087 10.9807ZM14.8087 10.7774C14.9097 10.7774 14.9928 10.7515 15.058 10.6998C15.1232 10.648 15.1714 10.5799 15.2027 10.4955C15.2341 10.4112 15.2497 10.3198 15.2497 10.2213C15.2497 10.1229 15.2341 10.0312 15.2027 9.94614C15.1714 9.86113 15.1232 9.79241 15.058 9.74C14.9928 9.68758 14.9097 9.66138 14.8087 9.66138C14.7077 9.66138 14.6246 9.68758 14.5594 9.74C14.4942 9.79241 14.4459 9.86113 14.4146 9.94614C14.3833 10.0312 14.3676 10.1229 14.3676 10.2213C14.3676 10.3198 14.3833 10.4112 14.4146 10.4955C14.4459 10.5799 14.4942 10.648 14.5594 10.6998C14.6246 10.7515 14.7077 10.7774 14.8087 10.7774ZM16.0477 10.0641V10.95H15.8214V9.47728H16.04V9.7074H16.0592C16.0937 9.63261 16.1461 9.57253 16.2164 9.52714C16.2868 9.48112 16.3775 9.45811 16.4887 9.45811C16.5885 9.45811 16.6757 9.47856 16.7505 9.51947C16.8253 9.55974 16.8834 9.62111 16.925 9.70356C16.9665 9.78538 16.9873 9.88893 16.9873 10.0142V10.95H16.761V10.0296C16.761 9.91386 16.731 9.82373 16.6709 9.75917C16.6108 9.69398 16.5284 9.66138 16.4235 9.66138C16.3513 9.66138 16.2868 9.67704 16.2299 9.70836C16.1736 9.73968 16.1292 9.78538 16.0966 9.84547C16.064 9.90555 16.0477 9.97842 16.0477 10.0641Z" fill="#B4B4B4"/>
<rect width="265.5" height="34.6" transform="translate(5 13.9)" fill="#0D0D0D"/>
<path d="M11.4068 22.3568H11.3834C11.3236 22.479 11.2443 22.5752 11.1455 22.6454C11.0467 22.713 10.9232 22.7468 10.775 22.7468C10.5384 22.7468 10.3499 22.6584 10.2095 22.4816C10.0691 22.3048 9.99895 22.0422 9.99895 21.6938C9.99895 21.3454 10.0691 21.0828 10.2095 20.906C10.3499 20.7292 10.5384 20.6408 10.775 20.6408C10.9232 20.6408 11.0467 20.6759 11.1455 20.7461C11.2443 20.8137 11.3236 20.9086 11.3834 21.0308H11.4068V19.814H11.8319V22.7H11.4068V22.3568ZM10.9505 22.3997C11.0129 22.3997 11.0714 22.3919 11.126 22.3763C11.1806 22.3607 11.2287 22.3373 11.2703 22.3061C11.3119 22.2749 11.3444 22.2372 11.3678 22.193C11.3938 22.1462 11.4068 22.0916 11.4068 22.0292V21.3584C11.4068 21.296 11.3938 21.2427 11.3678 21.1985C11.3444 21.1517 11.3119 21.1127 11.2703 21.0815C11.2287 21.0503 11.1806 21.0269 11.126 21.0113C11.0714 20.9957 11.0129 20.9879 10.9505 20.9879C10.7893 20.9879 10.6645 21.0373 10.5761 21.1361C10.4903 21.2349 10.4474 21.3662 10.4474 21.53V21.8576C10.4474 22.0214 10.4903 22.1527 10.5761 22.2515C10.6645 22.3503 10.7893 22.3997 10.9505 22.3997ZM13.4333 20.321C13.3241 20.321 13.2474 20.2989 13.2032 20.2547C13.1616 20.2105 13.1408 20.1559 13.1408 20.0909V20.009C13.1408 19.944 13.1616 19.8894 13.2032 19.8452C13.2474 19.801 13.3228 19.7789 13.4294 19.7789C13.5386 19.7789 13.614 19.801 13.6556 19.8452C13.6998 19.8894 13.7219 19.944 13.7219 20.009V20.0909C13.7219 20.1559 13.6998 20.2105 13.6556 20.2547C13.614 20.2989 13.5399 20.321 13.4333 20.321ZM12.5324 22.3568H13.2188V21.0308H12.5324V20.6876H13.6439V22.3568H14.2874V22.7H12.5324V22.3568ZM15.3857 22.7L14.6642 20.6876H15.1049L15.3818 21.5378L15.6431 22.3451H15.6665L15.9278 21.5378L16.2047 20.6876H16.6298L15.9083 22.7H15.3857Z" fill="#2B83B8"/>
<path d="M20.4176 23.2382C20.2798 23.2382 20.1784 23.2031 20.1134 23.1329C20.051 23.0653 20.0198 22.9795 20.0198 22.8755V22.661C20.0198 22.5934 20.0263 22.5336 20.0393 22.4816C20.0523 22.4296 20.0692 22.3841 20.09 22.3451C20.1134 22.3035 20.1381 22.2671 20.1641 22.2359C20.1901 22.2047 20.2148 22.1748 20.2382 22.1462C20.2824 22.0942 20.3123 22.05 20.3279 22.0136C20.3461 21.9746 20.3552 21.9343 20.3552 21.8927C20.3552 21.7237 20.1927 21.6392 19.8677 21.6392H19.544V21.335H19.8677C20.1927 21.335 20.3552 21.2505 20.3552 21.0815C20.3552 21.0399 20.3461 21.0009 20.3279 20.9645C20.3123 20.9255 20.2824 20.88 20.2382 20.828C20.2148 20.7994 20.1901 20.7695 20.1641 20.7383C20.1381 20.7045 20.1147 20.6681 20.0939 20.6291C20.0731 20.5901 20.0549 20.5446 20.0393 20.4926C20.0263 20.4406 20.0198 20.3808 20.0198 20.3132V20.0987C20.0198 19.9947 20.051 19.9089 20.1134 19.8413C20.1784 19.7711 20.2798 19.736 20.4176 19.736H21.104V20.0402H20.3708V20.2898C20.3708 20.3418 20.3747 20.3873 20.3825 20.4263C20.3903 20.4627 20.4007 20.4965 20.4137 20.5277C20.4293 20.5589 20.4462 20.5875 20.4644 20.6135C20.4852 20.6395 20.506 20.6655 20.5268 20.6915C20.571 20.7461 20.6126 20.8046 20.6516 20.867C20.6906 20.9294 20.7101 21.0022 20.7101 21.0854C20.7101 21.1946 20.6711 21.283 20.5931 21.3506C20.5177 21.4156 20.4098 21.4572 20.2694 21.4754V21.4988C20.4098 21.517 20.5177 21.5599 20.5931 21.6275C20.6711 21.6925 20.7101 21.7796 20.7101 21.8888C20.7101 21.972 20.6906 22.0448 20.6516 22.1072C20.6126 22.1696 20.571 22.2281 20.5268 22.2827C20.506 22.3087 20.4852 22.3347 20.4644 22.3607C20.4462 22.3867 20.4293 22.4153 20.4137 22.4465C20.4007 22.4777 20.3903 22.5128 20.3825 22.5518C20.3747 22.5882 20.3708 22.6324 20.3708 22.6844V22.934H21.104V23.2382H20.4176Z" fill="white"/>
<path d="M16.0838 27.3568H16.0604C16.0006 27.479 15.9213 27.5752 15.8225 27.6454C15.7237 27.713 15.6002 27.7468 15.452 27.7468C15.2154 27.7468 15.0269 27.6584 14.8865 27.4816C14.7461 27.3048 14.6759 27.0422 14.6759 26.6938C14.6759 26.3454 14.7461 26.0828 14.8865 25.906C15.0269 25.7292 15.2154 25.6408 15.452 25.6408C15.6002 25.6408 15.7237 25.6759 15.8225 25.7461C15.9213 25.8137 16.0006 25.9086 16.0604 26.0308H16.0838V24.814H16.5089V27.7H16.0838V27.3568ZM15.6275 27.3997C15.6899 27.3997 15.7484 27.3919 15.803 27.3763C15.8576 27.3607 15.9057 27.3373 15.9473 27.3061C15.9889 27.2749 16.0214 27.2372 16.0448 27.193C16.0708 27.1462 16.0838 27.0916 16.0838 27.0292V26.3584C16.0838 26.296 16.0708 26.2427 16.0448 26.1985C16.0214 26.1517 15.9889 26.1127 15.9473 26.0815C15.9057 26.0503 15.8576 26.0269 15.803 26.0113C15.7484 25.9957 15.6899 25.9879 15.6275 25.9879C15.4663 25.9879 15.3415 26.0373 15.2531 26.1361C15.1673 26.2349 15.1244 26.3662 15.1244 26.53V26.8576C15.1244 27.0214 15.1673 27.1527 15.2531 27.2515C15.3415 27.3503 15.4663 27.3997 15.6275 27.3997ZM18.1103 25.321C18.0011 25.321 17.9244 25.2989 17.8802 25.2547C17.8386 25.2105 17.8178 25.1559 17.8178 25.0909V25.009C17.8178 24.944 17.8386 24.8894 17.8802 24.8452C17.9244 24.801 17.9998 24.7789 18.1064 24.7789C18.2156 24.7789 18.291 24.801 18.3326 24.8452C18.3768 24.8894 18.3989 24.944 18.3989 25.009V25.0909C18.3989 25.1559 18.3768 25.2105 18.3326 25.2547C18.291 25.2989 18.2169 25.321 18.1103 25.321ZM17.2094 27.3568H17.8958V26.0308H17.2094V25.6876H18.3209V27.3568H18.9644V27.7H17.2094V27.3568ZM20.3279 27.7468C20.1095 27.7468 19.921 27.7117 19.7624 27.6415C19.6064 27.5713 19.4803 27.4777 19.3841 27.3607L19.6454 27.1267C19.7338 27.2229 19.8326 27.297 19.9418 27.349C20.0536 27.3984 20.1849 27.4231 20.3357 27.4231C20.4735 27.4231 20.584 27.3997 20.6672 27.3529C20.753 27.3061 20.7959 27.2333 20.7959 27.1345C20.7959 27.0929 20.7881 27.0578 20.7725 27.0292C20.7569 27.0006 20.7348 26.9772 20.7062 26.959C20.6776 26.9408 20.6438 26.9265 20.6048 26.9161C20.5684 26.9057 20.5294 26.8979 20.4878 26.8927L20.168 26.842C20.09 26.8316 20.0107 26.8147 19.9301 26.7913C19.8495 26.7679 19.7767 26.7354 19.7117 26.6938C19.6493 26.6496 19.5973 26.5937 19.5557 26.5261C19.5167 26.4585 19.4972 26.3727 19.4972 26.2687C19.4972 26.0633 19.5752 25.9073 19.7312 25.8007C19.8898 25.6941 20.0978 25.6408 20.3552 25.6408C20.5424 25.6408 20.7036 25.6694 20.8388 25.7266C20.9766 25.7812 21.091 25.8579 21.182 25.9567L20.9441 26.2063C20.8921 26.1465 20.818 26.0919 20.7218 26.0425C20.6256 25.9905 20.4982 25.9645 20.3396 25.9645C20.0562 25.9645 19.9145 26.0542 19.9145 26.2336C19.9145 26.3194 19.9444 26.3792 20.0042 26.413C20.0666 26.4442 20.1394 26.465 20.2226 26.4754L20.5424 26.5261C20.623 26.5391 20.7023 26.556 20.7803 26.5768C20.8609 26.5976 20.9324 26.6301 20.9948 26.6743C21.0598 26.7159 21.1118 26.7705 21.1508 26.8381C21.1924 26.9057 21.2132 26.9915 21.2132 27.0955C21.2132 27.2983 21.1339 27.4582 20.9753 27.5752C20.8193 27.6896 20.6035 27.7468 20.3279 27.7468ZM21.8005 25.6876H22.2256V26.0308H22.249C22.3088 25.9086 22.3881 25.8137 22.4869 25.7461C22.5857 25.6759 22.7092 25.6408 22.8574 25.6408C23.094 25.6408 23.2825 25.7292 23.4229 25.906C23.5633 26.0828 23.6335 26.3454 23.6335 26.6938C23.6335 27.0422 23.5633 27.3048 23.4229 27.4816C23.2825 27.6584 23.094 27.7468 22.8574 27.7468C22.7092 27.7468 22.5857 27.713 22.4869 27.6454C22.3881 27.5752 22.3088 27.479 22.249 27.3568H22.2256V28.48H21.8005V25.6876ZM22.6819 27.3997C22.8431 27.3997 22.9666 27.3503 23.0524 27.2515C23.1408 27.1527 23.185 27.0214 23.185 26.8576V26.53C23.185 26.3662 23.1408 26.2349 23.0524 26.1361C22.9666 26.0373 22.8431 25.9879 22.6819 25.9879C22.6195 25.9879 22.561 25.9957 22.5064 26.0113C22.4518 26.0269 22.4037 26.0503 22.3621 26.0815C22.3205 26.1127 22.2867 26.1517 22.2607 26.1985C22.2373 26.2427 22.2256 26.296 22.2256 26.3584V27.0292C22.2256 27.0916 22.2373 27.1462 22.2607 27.193C22.2867 27.2372 22.3205 27.2749 22.3621 27.3061C22.4037 27.3373 22.4518 27.3607 22.5064 27.3763C22.561 27.3919 22.6195 27.3997 22.6819 27.3997ZM24.1234 27.3568H24.7903V25.1572H24.1234V24.814H25.2154V27.3568H25.8823V27.7H24.1234V27.3568ZM28.0882 27.7C27.966 27.7 27.8737 27.6688 27.8113 27.6064C27.7515 27.544 27.7151 27.4621 27.7021 27.3607H27.6826C27.6436 27.4829 27.5721 27.5778 27.4681 27.6454C27.3667 27.713 27.2367 27.7468 27.0781 27.7468C26.8727 27.7468 26.7089 27.6935 26.5867 27.5869C26.4645 27.4777 26.4034 27.3282 26.4034 27.1384C26.4034 26.9434 26.4749 26.7952 26.6179 26.6938C26.7635 26.5898 26.9858 26.5378 27.2848 26.5378H27.6709V26.3818C27.6709 26.1088 27.5266 25.9723 27.238 25.9723C27.108 25.9723 27.0027 25.9983 26.9221 26.0503C26.8415 26.0997 26.7739 26.166 26.7193 26.2492L26.4658 26.0425C26.523 25.9333 26.6192 25.8397 26.7544 25.7617C26.8896 25.6811 27.0638 25.6408 27.277 25.6408C27.5318 25.6408 27.732 25.7019 27.8776 25.8241C28.0232 25.9463 28.096 26.1231 28.096 26.3545V27.3646H28.3495V27.7H28.0882ZM27.199 27.4348C27.3368 27.4348 27.4499 27.4036 27.5383 27.3412C27.6267 27.2788 27.6709 27.1982 27.6709 27.0994V26.8069H27.2926C26.9858 26.8069 26.8324 26.8992 26.8324 27.0838V27.1618C26.8324 27.2528 26.8649 27.3217 26.9299 27.3685C26.9949 27.4127 27.0846 27.4348 27.199 27.4348ZM30.2668 25.6876H30.6958L29.7208 28.09C29.6688 28.22 29.5999 28.3175 29.5141 28.3825C29.4309 28.4475 29.31 28.48 29.1514 28.48H28.8121V28.1368H29.2879L29.4712 27.6727L28.66 25.6876H29.1046L29.4244 26.53L29.674 27.2203H29.6974L29.947 26.53L30.2668 25.6876ZM34.3548 27.739C34.23 27.739 34.1416 27.713 34.0896 27.661C34.0402 27.609 34.0155 27.5453 34.0155 27.4699V27.3685C34.0155 27.2931 34.0402 27.2294 34.0896 27.1774C34.1416 27.1254 34.23 27.0994 34.3548 27.0994C34.4796 27.0994 34.5667 27.1254 34.6161 27.1774C34.6681 27.2294 34.6941 27.2931 34.6941 27.3685V27.4699C34.6941 27.5453 34.6681 27.609 34.6161 27.661C34.5667 27.713 34.4796 27.739 34.3548 27.739ZM34.3548 26.2882C34.23 26.2882 34.1416 26.2622 34.0896 26.2102C34.0402 26.1582 34.0155 26.0945 34.0155 26.0191V25.9177C34.0155 25.8423 34.0402 25.7786 34.0896 25.7266C34.1416 25.6746 34.23 25.6486 34.3548 25.6486C34.4796 25.6486 34.5667 25.6746 34.6161 25.7266C34.6681 25.7786 34.6941 25.8423 34.6941 25.9177V26.0191C34.6941 26.0945 34.6681 26.1582 34.6161 26.2102C34.5667 26.2622 34.4796 26.2882 34.3548 26.2882ZM38.166 27.3568H38.8095V26.0308H38.127V25.6876H38.8095V25.3249C38.8095 25.1741 38.8511 25.0519 38.9343 24.9583C39.0175 24.8621 39.1475 24.814 39.3243 24.814H40.0029V25.1572H39.2346V25.6876H40.0029V26.0308H39.2346V27.3568H39.9132V27.7H38.166V27.3568ZM40.4927 27.3568H41.1596V25.1572H40.4927V24.814H41.5847V27.3568H42.2516V27.7H40.4927V27.3568ZM43.7516 27.7468C43.5982 27.7468 43.4604 27.7221 43.3382 27.6727C43.216 27.6233 43.1133 27.5531 43.0301 27.4621C42.9469 27.3711 42.8832 27.2619 42.839 27.1345C42.7948 27.0045 42.7727 26.8589 42.7727 26.6977C42.7727 26.5365 42.7948 26.3909 42.839 26.2609C42.8858 26.1309 42.9495 26.0204 43.0301 25.9294C43.1133 25.8358 43.2134 25.7643 43.3304 25.7149C43.4474 25.6655 43.5774 25.6408 43.7204 25.6408C43.8608 25.6408 43.9882 25.6655 44.1026 25.7149C44.217 25.7617 44.3145 25.8293 44.3951 25.9177C44.4757 26.0061 44.5368 26.1114 44.5784 26.2336C44.6226 26.3558 44.6447 26.491 44.6447 26.6392V26.7991H43.2017V26.8654C43.2017 27.024 43.2511 27.154 43.3499 27.2554C43.4487 27.3542 43.5852 27.4036 43.7594 27.4036C43.8894 27.4036 43.9999 27.3763 44.0909 27.3217C44.1845 27.2645 44.2599 27.1891 44.3171 27.0955L44.5823 27.3295C44.5147 27.4465 44.4107 27.5453 44.2703 27.6259C44.1325 27.7065 43.9596 27.7468 43.7516 27.7468ZM43.7204 25.9645C43.645 25.9645 43.5748 25.9775 43.5098 26.0035C43.4474 26.0295 43.3928 26.0672 43.346 26.1166C43.3018 26.1634 43.2667 26.2193 43.2407 26.2843C43.2147 26.3493 43.2017 26.4208 43.2017 26.4988V26.5261H44.2118V26.4871C44.2118 26.3285 44.1663 26.2024 44.0753 26.1088C43.9869 26.0126 43.8686 25.9645 43.7204 25.9645ZM45.0527 27.7L45.8015 26.6782L45.0839 25.6876H45.5792L45.8444 26.0698L46.055 26.374H46.0784L46.2851 26.0698L46.5503 25.6876H47.0105L46.289 26.6626L47.0456 27.7H46.5464L46.2461 27.2671L46.0394 26.9707H46.016L45.8132 27.2671L45.5168 27.7H45.0527ZM48.1673 27.1072H48.7718L48.2882 28.2655H47.9567L48.1673 27.1072ZM48.3857 26.2882C48.2609 26.2882 48.1725 26.2622 48.1205 26.2102C48.0711 26.1582 48.0464 26.0945 48.0464 26.0191V25.9177C48.0464 25.8423 48.0711 25.7786 48.1205 25.7266C48.1725 25.6746 48.2609 25.6486 48.3857 25.6486C48.5105 25.6486 48.5976 25.6746 48.647 25.7266C48.699 25.7786 48.725 25.8423 48.725 25.9177V26.0191C48.725 26.0945 48.699 26.1582 48.647 26.2102C48.5976 26.2622 48.5105 26.2882 48.3857 26.2882ZM16.3958 32.7C16.2736 32.7 16.1813 32.6688 16.1189 32.6064C16.0591 32.544 16.0227 32.4621 16.0097 32.3607H15.9902C15.9512 32.4829 15.8797 32.5778 15.7757 32.6454C15.6743 32.713 15.5443 32.7468 15.3857 32.7468C15.1803 32.7468 15.0165 32.6935 14.8943 32.5869C14.7721 32.4777 14.711 32.3282 14.711 32.1384C14.711 31.9434 14.7825 31.7952 14.9255 31.6938C15.0711 31.5898 15.2934 31.5378 15.5924 31.5378H15.9785V31.3818C15.9785 31.1088 15.8342 30.9723 15.5456 30.9723C15.4156 30.9723 15.3103 30.9983 15.2297 31.0503C15.1491 31.0997 15.0815 31.166 15.0269 31.2492L14.7734 31.0425C14.8306 30.9333 14.9268 30.8397 15.062 30.7617C15.1972 30.6811 15.3714 30.6408 15.5846 30.6408C15.8394 30.6408 16.0396 30.7019 16.1852 30.8241C16.3308 30.9463 16.4036 31.1231 16.4036 31.3545V32.3646H16.6571V32.7H16.3958ZM15.5066 32.4348C15.6444 32.4348 15.7575 32.4036 15.8459 32.3412C15.9343 32.2788 15.9785 32.1982 15.9785 32.0994V31.8069H15.6002C15.2934 31.8069 15.14 31.8992 15.14 32.0838V32.1618C15.14 32.2528 15.1725 32.3217 15.2375 32.3685C15.3025 32.4127 15.3922 32.4348 15.5066 32.4348ZM17.108 32.3568H17.7749V30.1572H17.108V29.814H18.2V32.3568H18.8669V32.7H17.108V32.3568ZM20.4488 30.321C20.3396 30.321 20.2629 30.2989 20.2187 30.2547C20.1771 30.2105 20.1563 30.1559 20.1563 30.0909V30.009C20.1563 29.944 20.1771 29.8894 20.2187 29.8452C20.2629 29.801 20.3383 29.7789 20.4449 29.7789C20.5541 29.7789 20.6295 29.801 20.6711 29.8452C20.7153 29.8894 20.7374 29.944 20.7374 30.009V30.0909C20.7374 30.1559 20.7153 30.2105 20.6711 30.2547C20.6295 30.2989 20.5554 30.321 20.4488 30.321ZM19.5479 32.3568H20.2343V31.0308H19.5479V30.6876H20.6594V32.3568H21.3029V32.7H19.5479V32.3568ZM23.7154 32.9184C23.7154 33.1264 23.6283 33.2798 23.4541 33.3786C23.2799 33.4774 23.0147 33.5268 22.6585 33.5268C22.4843 33.5268 22.3374 33.5151 22.2178 33.4917C22.1008 33.4709 22.0046 33.4397 21.9292 33.3981C21.8564 33.3565 21.8031 33.3058 21.7693 33.246C21.7381 33.1862 21.7225 33.1186 21.7225 33.0432C21.7225 32.934 21.7524 32.8482 21.8122 32.7858C21.8746 32.726 21.9617 32.6818 22.0735 32.6532V32.6142C22.0059 32.5882 21.9513 32.5518 21.9097 32.505C21.8707 32.4582 21.8512 32.3971 21.8512 32.3217C21.8512 32.2229 21.885 32.1488 21.9526 32.0994C22.0202 32.0474 22.1073 32.0084 22.2139 31.9824V31.9629C22.0917 31.9057 21.9968 31.8251 21.9292 31.7211C21.8616 31.6171 21.8278 31.4923 21.8278 31.3467C21.8278 31.2401 21.8473 31.1439 21.8863 31.0581C21.9253 30.9697 21.9799 30.8956 22.0501 30.8358C22.1229 30.7734 22.2087 30.7253 22.3075 30.6915C22.4089 30.6577 22.522 30.6408 22.6468 30.6408C22.7872 30.6408 22.9133 30.6629 23.0251 30.7071V30.6408C23.0251 30.5628 23.0472 30.4978 23.0914 30.4458C23.1356 30.3938 23.2032 30.3678 23.2942 30.3678H23.6608V30.7032H23.1928V30.7968C23.2812 30.8566 23.3488 30.9333 23.3956 31.0269C23.4424 31.1179 23.4658 31.2245 23.4658 31.3467C23.4658 31.4533 23.4463 31.5508 23.4073 31.6392C23.3683 31.725 23.3124 31.7991 23.2396 31.8615C23.1694 31.9213 23.0836 31.9681 22.9822 32.0019C22.8834 32.0331 22.7716 32.0487 22.6468 32.0487C22.5584 32.0487 22.4752 32.0409 22.3972 32.0253C22.3504 32.0383 22.3036 32.0604 22.2568 32.0916C22.21 32.1228 22.1866 32.1657 22.1866 32.2203C22.1866 32.2827 22.2165 32.3217 22.2763 32.3373C22.3361 32.3529 22.4102 32.3607 22.4986 32.3607H22.951C23.2214 32.3607 23.4164 32.4127 23.536 32.5167C23.6556 32.6181 23.7154 32.752 23.7154 32.9184ZM23.3176 32.9457C23.3176 32.8781 23.2903 32.8235 23.2357 32.7819C23.1811 32.7429 23.0823 32.7234 22.9393 32.7234H22.2412C22.1424 32.7702 22.093 32.8456 22.093 32.9496C22.093 33.025 22.1242 33.09 22.1866 33.1446C22.2516 33.1992 22.3582 33.2265 22.5064 33.2265H22.8223C22.9835 33.2265 23.1057 33.2018 23.1889 33.1524C23.2747 33.1056 23.3176 33.0367 23.3176 32.9457ZM22.6468 31.7562C22.7846 31.7562 22.886 31.7237 22.951 31.6587C23.016 31.5937 23.0485 31.5066 23.0485 31.3974V31.2921C23.0485 31.1829 23.016 31.0958 22.951 31.0308C22.886 30.9658 22.7846 30.9333 22.6468 30.9333C22.509 30.9333 22.4076 30.9658 22.3426 31.0308C22.2776 31.0958 22.2451 31.1829 22.2451 31.2921V31.3974C22.2451 31.5066 22.2776 31.5937 22.3426 31.6587C22.4076 31.7237 22.509 31.7562 22.6468 31.7562ZM24.1585 32.7V30.6876H24.5836V31.0308H24.6031C24.6239 30.9788 24.6499 30.9294 24.6811 30.8826C24.7149 30.8332 24.7552 30.7916 24.802 30.7578C24.8488 30.7214 24.9034 30.6928 24.9658 30.672C25.0282 30.6512 25.101 30.6408 25.1842 30.6408C25.387 30.6408 25.5508 30.7071 25.6756 30.8397C25.8004 30.9723 25.8628 31.1608 25.8628 31.4052V32.7H25.4377V31.4676C25.4377 31.1478 25.2986 30.9879 25.0204 30.9879C24.9658 30.9879 24.9125 30.9957 24.8605 31.0113C24.8085 31.0243 24.7617 31.0451 24.7201 31.0737C24.6785 31.1023 24.6447 31.1387 24.6187 31.1829C24.5953 31.2271 24.5836 31.2778 24.5836 31.335V32.7H24.1585ZM26.7505 31.725V31.2999H27.9283V31.725H26.7505ZM29.8027 30.321C29.6935 30.321 29.6168 30.2989 29.5726 30.2547C29.531 30.2105 29.5102 30.1559 29.5102 30.0909V30.009C29.5102 29.944 29.531 29.8894 29.5726 29.8452C29.6168 29.801 29.6922 29.7789 29.7988 29.7789C29.908 29.7789 29.9834 29.801 30.025 29.8452C30.0692 29.8894 30.0913 29.944 30.0913 30.009V30.0909C30.0913 30.1559 30.0692 30.2105 30.025 30.2547C29.9834 30.2989 29.9093 30.321 29.8027 30.321ZM28.9018 32.3568H29.5882V31.0308H28.9018V30.6876H30.0133V32.3568H30.6568V32.7H28.9018V32.3568ZM32.1372 32.7C31.9604 32.7 31.8304 32.6532 31.7472 32.5596C31.664 32.4634 31.6224 32.3399 31.6224 32.1891V31.0308H31.0023V30.6876H31.443C31.5184 30.6876 31.5717 30.6733 31.6029 30.6447C31.6341 30.6135 31.6497 30.5589 31.6497 30.4809V29.9778H32.0475V30.6876H32.9055V31.0308H32.0475V32.3568H32.9055V32.7H32.1372ZM34.3977 32.7468C34.2443 32.7468 34.1065 32.7221 33.9843 32.6727C33.8621 32.6233 33.7594 32.5531 33.6762 32.4621C33.593 32.3711 33.5293 32.2619 33.4851 32.1345C33.4409 32.0045 33.4188 31.8589 33.4188 31.6977C33.4188 31.5365 33.4409 31.3909 33.4851 31.2609C33.5319 31.1309 33.5956 31.0204 33.6762 30.9294C33.7594 30.8358 33.8595 30.7643 33.9765 30.7149C34.0935 30.6655 34.2235 30.6408 34.3665 30.6408C34.5069 30.6408 34.6343 30.6655 34.7487 30.7149C34.8631 30.7617 34.9606 30.8293 35.0412 30.9177C35.1218 31.0061 35.1829 31.1114 35.2245 31.2336C35.2687 31.3558 35.2908 31.491 35.2908 31.6392V31.7991H33.8478V31.8654C33.8478 32.024 33.8972 32.154 33.996 32.2554C34.0948 32.3542 34.2313 32.4036 34.4055 32.4036C34.5355 32.4036 34.646 32.3763 34.737 32.3217C34.8306 32.2645 34.906 32.1891 34.9632 32.0955L35.2284 32.3295C35.1608 32.4465 35.0568 32.5453 34.9164 32.6259C34.7786 32.7065 34.6057 32.7468 34.3977 32.7468ZM34.3665 30.9645C34.2911 30.9645 34.2209 30.9775 34.1559 31.0035C34.0935 31.0295 34.0389 31.0672 33.9921 31.1166C33.9479 31.1634 33.9128 31.2193 33.8868 31.2843C33.8608 31.3493 33.8478 31.4208 33.8478 31.4988V31.5261H34.8579V31.4871C34.8579 31.3285 34.8124 31.2024 34.7214 31.1088C34.633 31.0126 34.5147 30.9645 34.3665 30.9645ZM35.6949 32.7V30.6876H36.0576V30.9489H36.0771C36.1083 30.8631 36.1525 30.7903 36.2097 30.7305C36.2695 30.6707 36.354 30.6408 36.4632 30.6408C36.5698 30.6408 36.6517 30.6707 36.7089 30.7305C36.7687 30.7877 36.8064 30.867 36.822 30.9684H36.8376C36.874 30.8774 36.9247 30.8007 36.9897 30.7383C37.0547 30.6733 37.1483 30.6408 37.2705 30.6408C37.4265 30.6408 37.5344 30.6954 37.5942 30.8046C37.6566 30.9138 37.6878 31.0737 37.6878 31.2843V32.7H37.3251V31.3389C37.3251 31.1985 37.3082 31.1023 37.2744 31.0503C37.2406 30.9957 37.186 30.9684 37.1106 30.9684C37.043 30.9684 36.9858 30.9918 36.939 31.0386C36.8948 31.0828 36.8727 31.1504 36.8727 31.2414V32.7H36.51V31.3389C36.51 31.1985 36.4931 31.1023 36.4593 31.0503C36.4281 30.9957 36.3748 30.9684 36.2994 30.9684C36.2292 30.9684 36.1707 30.9918 36.1239 31.0386C36.0797 31.0828 36.0576 31.1504 36.0576 31.2414V32.7H35.6949ZM39.0357 32.7468C38.8173 32.7468 38.6288 32.7117 38.4702 32.6415C38.3142 32.5713 38.1881 32.4777 38.0919 32.3607L38.3532 32.1267C38.4416 32.2229 38.5404 32.297 38.6496 32.349C38.7614 32.3984 38.8927 32.4231 39.0435 32.4231C39.1813 32.4231 39.2918 32.3997 39.375 32.3529C39.4608 32.3061 39.5037 32.2333 39.5037 32.1345C39.5037 32.0929 39.4959 32.0578 39.4803 32.0292C39.4647 32.0006 39.4426 31.9772 39.414 31.959C39.3854 31.9408 39.3516 31.9265 39.3126 31.9161C39.2762 31.9057 39.2372 31.8979 39.1956 31.8927L38.8758 31.842C38.7978 31.8316 38.7185 31.8147 38.6379 31.7913C38.5573 31.7679 38.4845 31.7354 38.4195 31.6938C38.3571 31.6496 38.3051 31.5937 38.2635 31.5261C38.2245 31.4585 38.205 31.3727 38.205 31.2687C38.205 31.0633 38.283 30.9073 38.439 30.8007C38.5976 30.6941 38.8056 30.6408 39.063 30.6408C39.2502 30.6408 39.4114 30.6694 39.5466 30.7266C39.6844 30.7812 39.7988 30.8579 39.8898 30.9567L39.6519 31.2063C39.5999 31.1465 39.5258 31.0919 39.4296 31.0425C39.3334 30.9905 39.206 30.9645 39.0474 30.9645C38.764 30.9645 38.6223 31.0542 38.6223 31.2336C38.6223 31.3194 38.6522 31.3792 38.712 31.413C38.7744 31.4442 38.8472 31.465 38.9304 31.4754L39.2502 31.5261C39.3308 31.5391 39.4101 31.556 39.4881 31.5768C39.5687 31.5976 39.6402 31.6301 39.7026 31.6743C39.7676 31.7159 39.8196 31.7705 39.8586 31.8381C39.9002 31.9057 39.921 31.9915 39.921 32.0955C39.921 32.2983 39.8417 32.4582 39.6831 32.5752C39.5271 32.6896 39.3113 32.7468 39.0357 32.7468ZM43.7087 32.739C43.5839 32.739 43.4955 32.713 43.4435 32.661C43.3941 32.609 43.3694 32.5453 43.3694 32.4699V32.3685C43.3694 32.2931 43.3941 32.2294 43.4435 32.1774C43.4955 32.1254 43.5839 32.0994 43.7087 32.0994C43.8335 32.0994 43.9206 32.1254 43.97 32.1774C44.022 32.2294 44.048 32.2931 44.048 32.3685V32.4699C44.048 32.5453 44.022 32.609 43.97 32.661C43.9206 32.713 43.8335 32.739 43.7087 32.739ZM43.7087 31.2882C43.5839 31.2882 43.4955 31.2622 43.4435 31.2102C43.3941 31.1582 43.3694 31.0945 43.3694 31.0191V30.9177C43.3694 30.8423 43.3941 30.7786 43.4435 30.7266C43.4955 30.6746 43.5839 30.6486 43.7087 30.6486C43.8335 30.6486 43.9206 30.6746 43.97 30.7266C44.022 30.7786 44.048 30.8423 44.048 30.9177V31.0191C44.048 31.0945 44.022 31.1582 43.97 31.2102C43.9206 31.2622 43.8335 31.2882 43.7087 31.2882ZM48.4598 32.7468C48.309 32.7468 48.1738 32.7221 48.0542 32.6727C47.9372 32.6233 47.8371 32.5531 47.7539 32.4621C47.6733 32.3711 47.6109 32.2606 47.5667 32.1306C47.5251 32.0006 47.5043 31.855 47.5043 31.6938C47.5043 31.5326 47.5251 31.387 47.5667 31.257C47.6109 31.127 47.6733 31.0165 47.7539 30.9255C47.8371 30.8345 47.9372 30.7643 48.0542 30.7149C48.1738 30.6655 48.3077 30.6408 48.4559 30.6408C48.6639 30.6408 48.8303 30.685 48.9551 30.7734C49.0825 30.8618 49.1774 30.9762 49.2398 31.1166L48.9083 31.296C48.8719 31.2024 48.816 31.1283 48.7406 31.0737C48.6678 31.0191 48.5729 30.9918 48.4559 30.9918C48.2947 30.9918 48.1699 31.0412 48.0815 31.14C47.9931 31.2362 47.9489 31.3649 47.9489 31.5261V31.8615C47.9489 32.0201 47.9931 32.1488 48.0815 32.2476C48.1699 32.3464 48.2973 32.3958 48.4637 32.3958C48.5885 32.3958 48.6899 32.3672 48.7679 32.31C48.8485 32.2528 48.9122 32.1748 48.959 32.076L49.271 32.2671C49.206 32.4075 49.1072 32.5232 48.9746 32.6142C48.842 32.7026 48.6704 32.7468 48.4598 32.7468ZM50.7671 32.7468C50.6137 32.7468 50.4759 32.7221 50.3537 32.6727C50.2315 32.6233 50.1288 32.5531 50.0456 32.4621C49.9624 32.3711 49.8987 32.2619 49.8545 32.1345C49.8103 32.0045 49.7882 31.8589 49.7882 31.6977C49.7882 31.5365 49.8103 31.3909 49.8545 31.2609C49.9013 31.1309 49.965 31.0204 50.0456 30.9294C50.1288 30.8358 50.2289 30.7643 50.3459 30.7149C50.4629 30.6655 50.5929 30.6408 50.7359 30.6408C50.8763 30.6408 51.0037 30.6655 51.1181 30.7149C51.2325 30.7617 51.33 30.8293 51.4106 30.9177C51.4912 31.0061 51.5523 31.1114 51.5939 31.2336C51.6381 31.3558 51.6602 31.491 51.6602 31.6392V31.7991H50.2172V31.8654C50.2172 32.024 50.2666 32.154 50.3654 32.2554C50.4642 32.3542 50.6007 32.4036 50.7749 32.4036C50.9049 32.4036 51.0154 32.3763 51.1064 32.3217C51.2 32.2645 51.2754 32.1891 51.3326 32.0955L51.5978 32.3295C51.5302 32.4465 51.4262 32.5453 51.2858 32.6259C51.148 32.7065 50.9751 32.7468 50.7671 32.7468ZM50.7359 30.9645C50.6605 30.9645 50.5903 30.9775 50.5253 31.0035C50.4629 31.0295 50.4083 31.0672 50.3615 31.1166C50.3173 31.1634 50.2822 31.2193 50.2562 31.2843C50.2302 31.3493 50.2172 31.4208 50.2172 31.4988V31.5261H51.2273V31.4871C51.2273 31.3285 51.1818 31.2024 51.0908 31.1088C51.0024 31.0126 50.8841 30.9645 50.7359 30.9645ZM52.2202 32.7V30.6876H52.6453V31.0308H52.6648C52.6856 30.9788 52.7116 30.9294 52.7428 30.8826C52.7766 30.8332 52.8169 30.7916 52.8637 30.7578C52.9105 30.7214 52.9651 30.6928 53.0275 30.672C53.0899 30.6512 53.1627 30.6408 53.2459 30.6408C53.4487 30.6408 53.6125 30.7071 53.7373 30.8397C53.8621 30.9723 53.9245 31.1608 53.9245 31.4052V32.7H53.4994V31.4676C53.4994 31.1478 53.3603 30.9879 53.0821 30.9879C53.0275 30.9879 52.9742 30.9957 52.9222 31.0113C52.8702 31.0243 52.8234 31.0451 52.7818 31.0737C52.7402 31.1023 52.7064 31.1387 52.6804 31.1829C52.657 31.2271 52.6453 31.2778 52.6453 31.335V32.7H52.2202ZM55.522 32.7C55.3452 32.7 55.2152 32.6532 55.132 32.5596C55.0488 32.4634 55.0072 32.3399 55.0072 32.1891V31.0308H54.3871V30.6876H54.8278C54.9032 30.6876 54.9565 30.6733 54.9877 30.6447C55.0189 30.6135 55.0345 30.5589 55.0345 30.4809V29.9778H55.4323V30.6876H56.2903V31.0308H55.4323V32.3568H56.2903V32.7H55.522ZM57.7825 32.7468C57.6291 32.7468 57.4913 32.7221 57.3691 32.6727C57.2469 32.6233 57.1442 32.5531 57.061 32.4621C56.9778 32.3711 56.9141 32.2619 56.8699 32.1345C56.8257 32.0045 56.8036 31.8589 56.8036 31.6977C56.8036 31.5365 56.8257 31.3909 56.8699 31.2609C56.9167 31.1309 56.9804 31.0204 57.061 30.9294C57.1442 30.8358 57.2443 30.7643 57.3613 30.7149C57.4783 30.6655 57.6083 30.6408 57.7513 30.6408C57.8917 30.6408 58.0191 30.6655 58.1335 30.7149C58.2479 30.7617 58.3454 30.8293 58.426 30.9177C58.5066 31.0061 58.5677 31.1114 58.6093 31.2336C58.6535 31.3558 58.6756 31.491 58.6756 31.6392V31.7991H57.2326V31.8654C57.2326 32.024 57.282 32.154 57.3808 32.2554C57.4796 32.3542 57.6161 32.4036 57.7903 32.4036C57.9203 32.4036 58.0308 32.3763 58.1218 32.3217C58.2154 32.2645 58.2908 32.1891 58.348 32.0955L58.6132 32.3295C58.5456 32.4465 58.4416 32.5453 58.3012 32.6259C58.1634 32.7065 57.9905 32.7468 57.7825 32.7468ZM57.7513 30.9645C57.6759 30.9645 57.6057 30.9775 57.5407 31.0035C57.4783 31.0295 57.4237 31.0672 57.3769 31.1166C57.3327 31.1634 57.2976 31.2193 57.2716 31.2843C57.2456 31.3493 57.2326 31.4208 57.2326 31.4988V31.5261H58.2427V31.4871C58.2427 31.3285 58.1972 31.2024 58.1062 31.1088C58.0178 31.0126 57.8995 30.9645 57.7513 30.9645ZM59.2045 32.3568H59.7388V31.0308H59.2045V30.6876H60.1639V31.2219H60.1873C60.2055 31.1517 60.2315 31.0841 60.2653 31.0191C60.2991 30.9541 60.342 30.8982 60.394 30.8514C60.446 30.802 60.5097 30.763 60.5851 30.7344C60.6605 30.7032 60.7489 30.6876 60.8503 30.6876H61.0921V31.0932H60.6943C60.5383 31.0932 60.4109 31.14 60.3121 31.2336C60.2133 31.3246 60.1639 31.4481 60.1639 31.6041V32.3568H60.8932V32.7H59.2045V32.3568ZM62.1981 32.1072H62.8026L62.319 33.2655H61.9875L62.1981 32.1072ZM62.4165 31.2882C62.2917 31.2882 62.2033 31.2622 62.1513 31.2102C62.1019 31.1582 62.0772 31.0945 62.0772 31.0191V30.9177C62.0772 30.8423 62.1019 30.7786 62.1513 30.7266C62.2033 30.6746 62.2917 30.6486 62.4165 30.6486C62.5413 30.6486 62.6284 30.6746 62.6778 30.7266C62.7298 30.7786 62.7558 30.8423 62.7558 30.9177V31.0191C62.7558 31.0945 62.7298 31.1582 62.6778 31.2102C62.6284 31.2622 62.5413 31.2882 62.4165 31.2882ZM14.8592 38.1368H15.7484V36.0308H14.8358V35.6876H16.1735V37.9691C16.1735 38.1199 16.1306 38.2421 16.0448 38.3357C15.9616 38.4319 15.8316 38.48 15.6548 38.48H14.8592V38.1368ZM15.9629 35.321C15.8537 35.321 15.777 35.2989 15.7328 35.2547C15.6912 35.2105 15.6704 35.1559 15.6704 35.0909V35.009C15.6704 34.944 15.6912 34.8894 15.7328 34.8452C15.777 34.801 15.8524 34.7789 15.959 34.7789C16.0682 34.7789 16.1436 34.801 16.1852 34.8452C16.2294 34.8894 16.2515 34.944 16.2515 35.009V35.0909C16.2515 35.1559 16.2294 35.2105 16.1852 35.2547C16.1436 35.2989 16.0695 35.321 15.9629 35.321ZM18.4028 37.3568H18.3833C18.3625 37.4088 18.3352 37.4595 18.3014 37.5089C18.2702 37.5557 18.2312 37.5973 18.1844 37.6337C18.1376 37.6675 18.083 37.6948 18.0206 37.7156C17.9582 37.7364 17.8854 37.7468 17.8022 37.7468C17.5994 37.7468 17.4356 37.6805 17.3108 37.5479C17.186 37.4153 17.1236 37.2268 17.1236 36.9824V35.6876H17.5487V36.92C17.5487 37.2398 17.6878 37.3997 17.966 37.3997C18.0206 37.3997 18.0739 37.3932 18.1259 37.3802C18.1779 37.3646 18.2247 37.3425 18.2663 37.3139C18.3079 37.2853 18.3404 37.2502 18.3638 37.2086C18.3898 37.1644 18.4028 37.1124 18.4028 37.0526V35.6876H18.8279V37.7H18.4028V37.3568ZM20.3279 37.7468C20.1095 37.7468 19.921 37.7117 19.7624 37.6415C19.6064 37.5713 19.4803 37.4777 19.3841 37.3607L19.6454 37.1267C19.7338 37.2229 19.8326 37.297 19.9418 37.349C20.0536 37.3984 20.1849 37.4231 20.3357 37.4231C20.4735 37.4231 20.584 37.3997 20.6672 37.3529C20.753 37.3061 20.7959 37.2333 20.7959 37.1345C20.7959 37.0929 20.7881 37.0578 20.7725 37.0292C20.7569 37.0006 20.7348 36.9772 20.7062 36.959C20.6776 36.9408 20.6438 36.9265 20.6048 36.9161C20.5684 36.9057 20.5294 36.8979 20.4878 36.8927L20.168 36.842C20.09 36.8316 20.0107 36.8147 19.9301 36.7913C19.8495 36.7679 19.7767 36.7354 19.7117 36.6938C19.6493 36.6496 19.5973 36.5937 19.5557 36.5261C19.5167 36.4585 19.4972 36.3727 19.4972 36.2687C19.4972 36.0633 19.5752 35.9073 19.7312 35.8007C19.8898 35.6941 20.0978 35.6408 20.3552 35.6408C20.5424 35.6408 20.7036 35.6694 20.8388 35.7266C20.9766 35.7812 21.091 35.8579 21.182 35.9567L20.9441 36.2063C20.8921 36.1465 20.818 36.0919 20.7218 36.0425C20.6256 35.9905 20.4982 35.9645 20.3396 35.9645C20.0562 35.9645 19.9145 36.0542 19.9145 36.2336C19.9145 36.3194 19.9444 36.3792 20.0042 36.413C20.0666 36.4442 20.1394 36.465 20.2226 36.4754L20.5424 36.5261C20.623 36.5391 20.7023 36.556 20.7803 36.5768C20.8609 36.5976 20.9324 36.6301 20.9948 36.6743C21.0598 36.7159 21.1118 36.7705 21.1508 36.8381C21.1924 36.9057 21.2132 36.9915 21.2132 37.0955C21.2132 37.2983 21.1339 37.4582 20.9753 37.5752C20.8193 37.6896 20.6035 37.7468 20.3279 37.7468ZM22.7833 37.7C22.6065 37.7 22.4765 37.6532 22.3933 37.5596C22.3101 37.4634 22.2685 37.3399 22.2685 37.1891V36.0308H21.6484V35.6876H22.0891C22.1645 35.6876 22.2178 35.6733 22.249 35.6447C22.2802 35.6135 22.2958 35.5589 22.2958 35.4809V34.9778H22.6936V35.6876H23.5516V36.0308H22.6936V37.3568H23.5516V37.7H22.7833ZM25.1257 35.321C25.0165 35.321 24.9398 35.2989 24.8956 35.2547C24.854 35.2105 24.8332 35.1559 24.8332 35.0909V35.009C24.8332 34.944 24.854 34.8894 24.8956 34.8452C24.9398 34.801 25.0152 34.7789 25.1218 34.7789C25.231 34.7789 25.3064 34.801 25.348 34.8452C25.3922 34.8894 25.4143 34.944 25.4143 35.009V35.0909C25.4143 35.1559 25.3922 35.2105 25.348 35.2547C25.3064 35.2989 25.2323 35.321 25.1257 35.321ZM24.2248 37.3568H24.9112V36.0308H24.2248V35.6876H25.3363V37.3568H25.9798V37.7H24.2248V37.3568ZM26.4736 37.3568H27.1171V36.0308H26.4346V35.6876H27.1171V35.3249C27.1171 35.1741 27.1587 35.0519 27.2419 34.9583C27.3251 34.8621 27.4551 34.814 27.6319 34.814H28.3105V35.1572H27.5422V35.6876H28.3105V36.0308H27.5422V37.3568H28.2208V37.7H26.4736V37.3568ZM30.2668 35.6876H30.6958L29.7208 38.09C29.6688 38.22 29.5999 38.3175 29.5141 38.3825C29.4309 38.4475 29.31 38.48 29.1514 38.48H28.8121V38.1368H29.2879L29.4712 37.6727L28.66 35.6876H29.1046L29.4244 36.53L29.674 37.2203H29.6974L29.947 36.53L30.2668 35.6876ZM31.4274 36.725V36.2999H32.6052V36.725H31.4274ZM34.4289 37.7468C34.2781 37.7468 34.1429 37.7221 34.0233 37.6727C33.9063 37.6233 33.8062 37.5531 33.723 37.4621C33.6424 37.3711 33.58 37.2606 33.5358 37.1306C33.4942 37.0006 33.4734 36.855 33.4734 36.6938C33.4734 36.5326 33.4942 36.387 33.5358 36.257C33.58 36.127 33.6424 36.0165 33.723 35.9255C33.8062 35.8345 33.9063 35.7643 34.0233 35.7149C34.1429 35.6655 34.2768 35.6408 34.425 35.6408C34.633 35.6408 34.7994 35.685 34.9242 35.7734C35.0516 35.8618 35.1465 35.9762 35.2089 36.1166L34.8774 36.296C34.841 36.2024 34.7851 36.1283 34.7097 36.0737C34.6369 36.0191 34.542 35.9918 34.425 35.9918C34.2638 35.9918 34.139 36.0412 34.0506 36.14C33.9622 36.2362 33.918 36.3649 33.918 36.5261V36.8615C33.918 37.0201 33.9622 37.1488 34.0506 37.2476C34.139 37.3464 34.2664 37.3958 34.4328 37.3958C34.5576 37.3958 34.659 37.3672 34.737 37.31C34.8176 37.2528 34.8813 37.1748 34.9281 37.076L35.2401 37.2671C35.1751 37.4075 35.0763 37.5232 34.9437 37.6142C34.8111 37.7026 34.6395 37.7468 34.4289 37.7468ZM36.6933 37.7468C36.5451 37.7468 36.4112 37.7221 36.2916 37.6727C36.1746 37.6233 36.0745 37.5531 35.9913 37.4621C35.9107 37.3711 35.8483 37.2606 35.8041 37.1306C35.7599 37.0006 35.7378 36.855 35.7378 36.6938C35.7378 36.5326 35.7599 36.387 35.8041 36.257C35.8483 36.127 35.9107 36.0165 35.9913 35.9255C36.0745 35.8345 36.1746 35.7643 36.2916 35.7149C36.4112 35.6655 36.5451 35.6408 36.6933 35.6408C36.8415 35.6408 36.9741 35.6655 37.0911 35.7149C37.2107 35.7643 37.3108 35.8345 37.3914 35.9255C37.4746 36.0165 37.5383 36.127 37.5825 36.257C37.6267 36.387 37.6488 36.5326 37.6488 36.6938C37.6488 36.855 37.6267 37.0006 37.5825 37.1306C37.5383 37.2606 37.4746 37.3711 37.3914 37.4621C37.3108 37.5531 37.2107 37.6233 37.0911 37.6727C36.9741 37.7221 36.8415 37.7468 36.6933 37.7468ZM36.6933 37.4114C36.8493 37.4114 36.9728 37.3646 37.0638 37.271C37.1574 37.1748 37.2042 37.0331 37.2042 36.8459V36.5417C37.2042 36.3545 37.1574 36.2141 37.0638 36.1205C36.9728 36.0243 36.8493 35.9762 36.6933 35.9762C36.5373 35.9762 36.4125 36.0243 36.3189 36.1205C36.2279 36.2141 36.1824 36.3545 36.1824 36.5417V36.8459C36.1824 37.0331 36.2279 37.1748 36.3189 37.271C36.4125 37.3646 36.5373 37.4114 36.6933 37.4114ZM38.1894 37.7V35.6876H38.6145V36.0308H38.634C38.6548 35.9788 38.6808 35.9294 38.712 35.8826C38.7458 35.8332 38.7861 35.7916 38.8329 35.7578C38.8797 35.7214 38.9343 35.6928 38.9967 35.672C39.0591 35.6512 39.1319 35.6408 39.2151 35.6408C39.4179 35.6408 39.5817 35.7071 39.7065 35.8397C39.8313 35.9723 39.8937 36.1608 39.8937 36.4052V37.7H39.4686V36.4676C39.4686 36.1478 39.3295 35.9879 39.0513 35.9879C38.9967 35.9879 38.9434 35.9957 38.8914 36.0113C38.8394 36.0243 38.7926 36.0451 38.751 36.0737C38.7094 36.1023 38.6756 36.1387 38.6496 36.1829C38.6262 36.2271 38.6145 36.2778 38.6145 36.335V37.7H38.1894ZM41.4911 37.7C41.3143 37.7 41.1843 37.6532 41.1011 37.5596C41.0179 37.4634 40.9763 37.3399 40.9763 37.1891V36.0308H40.3562V35.6876H40.7969C40.8723 35.6876 40.9256 35.6733 40.9568 35.6447C40.988 35.6135 41.0036 35.5589 41.0036 35.4809V34.9778H41.4014V35.6876H42.2594V36.0308H41.4014V37.3568H42.2594V37.7H41.4911ZM43.7516 37.7468C43.5982 37.7468 43.4604 37.7221 43.3382 37.6727C43.216 37.6233 43.1133 37.5531 43.0301 37.4621C42.9469 37.3711 42.8832 37.2619 42.839 37.1345C42.7948 37.0045 42.7727 36.8589 42.7727 36.6977C42.7727 36.5365 42.7948 36.3909 42.839 36.2609C42.8858 36.1309 42.9495 36.0204 43.0301 35.9294C43.1133 35.8358 43.2134 35.7643 43.3304 35.7149C43.4474 35.6655 43.5774 35.6408 43.7204 35.6408C43.8608 35.6408 43.9882 35.6655 44.1026 35.7149C44.217 35.7617 44.3145 35.8293 44.3951 35.9177C44.4757 36.0061 44.5368 36.1114 44.5784 36.2336C44.6226 36.3558 44.6447 36.491 44.6447 36.6392V36.7991H43.2017V36.8654C43.2017 37.024 43.2511 37.154 43.3499 37.2554C43.4487 37.3542 43.5852 37.4036 43.7594 37.4036C43.8894 37.4036 43.9999 37.3763 44.0909 37.3217C44.1845 37.2645 44.2599 37.1891 44.3171 37.0955L44.5823 37.3295C44.5147 37.4465 44.4107 37.5453 44.2703 37.6259C44.1325 37.7065 43.9596 37.7468 43.7516 37.7468ZM43.7204 35.9645C43.645 35.9645 43.5748 35.9775 43.5098 36.0035C43.4474 36.0295 43.3928 36.0672 43.346 36.1166C43.3018 36.1634 43.2667 36.2193 43.2407 36.2843C43.2147 36.3493 43.2017 36.4208 43.2017 36.4988V36.5261H44.2118V36.4871C44.2118 36.3285 44.1663 36.2024 44.0753 36.1088C43.9869 36.0126 43.8686 35.9645 43.7204 35.9645ZM45.2048 37.7V35.6876H45.6299V36.0308H45.6494C45.6702 35.9788 45.6962 35.9294 45.7274 35.8826C45.7612 35.8332 45.8015 35.7916 45.8483 35.7578C45.8951 35.7214 45.9497 35.6928 46.0121 35.672C46.0745 35.6512 46.1473 35.6408 46.2305 35.6408C46.4333 35.6408 46.5971 35.7071 46.7219 35.8397C46.8467 35.9723 46.9091 36.1608 46.9091 36.4052V37.7H46.484V36.4676C46.484 36.1478 46.3449 35.9879 46.0667 35.9879C46.0121 35.9879 45.9588 35.9957 45.9068 36.0113C45.8548 36.0243 45.808 36.0451 45.7664 36.0737C45.7248 36.1023 45.691 36.1387 45.665 36.1829C45.6416 36.2271 45.6299 36.2778 45.6299 36.335V37.7H45.2048ZM48.5066 37.7C48.3298 37.7 48.1998 37.6532 48.1166 37.5596C48.0334 37.4634 47.9918 37.3399 47.9918 37.1891V36.0308H47.3717V35.6876H47.8124C47.8878 35.6876 47.9411 35.6733 47.9723 35.6447C48.0035 35.6135 48.0191 35.5589 48.0191 35.4809V34.9778H48.4169V35.6876H49.2749V36.0308H48.4169V37.3568H49.2749V37.7H48.5066ZM50.7242 37.739C50.5994 37.739 50.511 37.713 50.459 37.661C50.4096 37.609 50.3849 37.5453 50.3849 37.4699V37.3685C50.3849 37.2931 50.4096 37.2294 50.459 37.1774C50.511 37.1254 50.5994 37.0994 50.7242 37.0994C50.849 37.0994 50.9361 37.1254 50.9855 37.1774C51.0375 37.2294 51.0635 37.2931 51.0635 37.3685V37.4699C51.0635 37.5453 51.0375 37.609 50.9855 37.661C50.9361 37.713 50.849 37.739 50.7242 37.739ZM50.7242 36.2882C50.5994 36.2882 50.511 36.2622 50.459 36.2102C50.4096 36.1582 50.3849 36.0945 50.3849 36.0191V35.9177C50.3849 35.8423 50.4096 35.7786 50.459 35.7266C50.511 35.6746 50.5994 35.6486 50.7242 35.6486C50.849 35.6486 50.9361 35.6746 50.9855 35.7266C51.0375 35.7786 51.0635 35.8423 51.0635 35.9177V36.0191C51.0635 36.0945 51.0375 36.1582 50.9855 36.2102C50.9361 36.2622 50.849 36.2882 50.7242 36.2882ZM55.4752 37.7468C55.3244 37.7468 55.1892 37.7221 55.0696 37.6727C54.9526 37.6233 54.8525 37.5531 54.7693 37.4621C54.6887 37.3711 54.6263 37.2606 54.5821 37.1306C54.5405 37.0006 54.5197 36.855 54.5197 36.6938C54.5197 36.5326 54.5405 36.387 54.5821 36.257C54.6263 36.127 54.6887 36.0165 54.7693 35.9255C54.8525 35.8345 54.9526 35.7643 55.0696 35.7149C55.1892 35.6655 55.3231 35.6408 55.4713 35.6408C55.6793 35.6408 55.8457 35.685 55.9705 35.7734C56.0979 35.8618 56.1928 35.9762 56.2552 36.1166L55.9237 36.296C55.8873 36.2024 55.8314 36.1283 55.756 36.0737C55.6832 36.0191 55.5883 35.9918 55.4713 35.9918C55.3101 35.9918 55.1853 36.0412 55.0969 36.14C55.0085 36.2362 54.9643 36.3649 54.9643 36.5261V36.8615C54.9643 37.0201 55.0085 37.1488 55.0969 37.2476C55.1853 37.3464 55.3127 37.3958 55.4791 37.3958C55.6039 37.3958 55.7053 37.3672 55.7833 37.31C55.8639 37.2528 55.9276 37.1748 55.9744 37.076L56.2864 37.2671C56.2214 37.4075 56.1226 37.5232 55.99 37.6142C55.8574 37.7026 55.6858 37.7468 55.4752 37.7468ZM57.7825 37.7468C57.6291 37.7468 57.4913 37.7221 57.3691 37.6727C57.2469 37.6233 57.1442 37.5531 57.061 37.4621C56.9778 37.3711 56.9141 37.2619 56.8699 37.1345C56.8257 37.0045 56.8036 36.8589 56.8036 36.6977C56.8036 36.5365 56.8257 36.3909 56.8699 36.2609C56.9167 36.1309 56.9804 36.0204 57.061 35.9294C57.1442 35.8358 57.2443 35.7643 57.3613 35.7149C57.4783 35.6655 57.6083 35.6408 57.7513 35.6408C57.8917 35.6408 58.0191 35.6655 58.1335 35.7149C58.2479 35.7617 58.3454 35.8293 58.426 35.9177C58.5066 36.0061 58.5677 36.1114 58.6093 36.2336C58.6535 36.3558 58.6756 36.491 58.6756 36.6392V36.7991H57.2326V36.8654C57.2326 37.024 57.282 37.154 57.3808 37.2554C57.4796 37.3542 57.6161 37.4036 57.7903 37.4036C57.9203 37.4036 58.0308 37.3763 58.1218 37.3217C58.2154 37.2645 58.2908 37.1891 58.348 37.0955L58.6132 37.3295C58.5456 37.4465 58.4416 37.5453 58.3012 37.6259C58.1634 37.7065 57.9905 37.7468 57.7825 37.7468ZM57.7513 35.9645C57.6759 35.9645 57.6057 35.9775 57.5407 36.0035C57.4783 36.0295 57.4237 36.0672 57.3769 36.1166C57.3327 36.1634 57.2976 36.2193 57.2716 36.2843C57.2456 36.3493 57.2326 36.4208 57.2326 36.4988V36.5261H58.2427V36.4871C58.2427 36.3285 58.1972 36.2024 58.1062 36.1088C58.0178 36.0126 57.8995 35.9645 57.7513 35.9645ZM59.2357 37.7V35.6876H59.6608V36.0308H59.6803C59.7011 35.9788 59.7271 35.9294 59.7583 35.8826C59.7921 35.8332 59.8324 35.7916 59.8792 35.7578C59.926 35.7214 59.9806 35.6928 60.043 35.672C60.1054 35.6512 60.1782 35.6408 60.2614 35.6408C60.4642 35.6408 60.628 35.7071 60.7528 35.8397C60.8776 35.9723 60.94 36.1608 60.94 36.4052V37.7H60.5149V36.4676C60.5149 36.1478 60.3758 35.9879 60.0976 35.9879C60.043 35.9879 59.9897 35.9957 59.9377 36.0113C59.8857 36.0243 59.8389 36.0451 59.7973 36.0737C59.7557 36.1023 59.7219 36.1387 59.6959 36.1829C59.6725 36.2271 59.6608 36.2778 59.6608 36.335V37.7H59.2357ZM62.5374 37.7C62.3606 37.7 62.2306 37.6532 62.1474 37.5596C62.0642 37.4634 62.0226 37.3399 62.0226 37.1891V36.0308H61.4025V35.6876H61.8432C61.9186 35.6876 61.9719 35.6733 62.0031 35.6447C62.0343 35.6135 62.0499 35.5589 62.0499 35.4809V34.9778H62.4477V35.6876H63.3057V36.0308H62.4477V37.3568H63.3057V37.7H62.5374ZM64.7979 37.7468C64.6445 37.7468 64.5067 37.7221 64.3845 37.6727C64.2623 37.6233 64.1596 37.5531 64.0764 37.4621C63.9932 37.3711 63.9295 37.2619 63.8853 37.1345C63.8411 37.0045 63.819 36.8589 63.819 36.6977C63.819 36.5365 63.8411 36.3909 63.8853 36.2609C63.9321 36.1309 63.9958 36.0204 64.0764 35.9294C64.1596 35.8358 64.2597 35.7643 64.3767 35.7149C64.4937 35.6655 64.6237 35.6408 64.7667 35.6408C64.9071 35.6408 65.0345 35.6655 65.1489 35.7149C65.2633 35.7617 65.3608 35.8293 65.4414 35.9177C65.522 36.0061 65.5831 36.1114 65.6247 36.2336C65.6689 36.3558 65.691 36.491 65.691 36.6392V36.7991H64.248V36.8654C64.248 37.024 64.2974 37.154 64.3962 37.2554C64.495 37.3542 64.6315 37.4036 64.8057 37.4036C64.9357 37.4036 65.0462 37.3763 65.1372 37.3217C65.2308 37.2645 65.3062 37.1891 65.3634 37.0955L65.6286 37.3295C65.561 37.4465 65.457 37.5453 65.3166 37.6259C65.1788 37.7065 65.0059 37.7468 64.7979 37.7468ZM64.7667 35.9645C64.6913 35.9645 64.6211 35.9775 64.5561 36.0035C64.4937 36.0295 64.4391 36.0672 64.3923 36.1166C64.3481 36.1634 64.313 36.2193 64.287 36.2843C64.261 36.3493 64.248 36.4208 64.248 36.4988V36.5261H65.2581V36.4871C65.2581 36.3285 65.2126 36.2024 65.1216 36.1088C65.0332 36.0126 64.9149 35.9645 64.7667 35.9645ZM66.2199 37.3568H66.7542V36.0308H66.2199V35.6876H67.1793V36.2219H67.2027C67.2209 36.1517 67.2469 36.0841 67.2807 36.0191C67.3145 35.9541 67.3574 35.8982 67.4094 35.8514C67.4614 35.802 67.5251 35.763 67.6005 35.7344C67.6759 35.7032 67.7643 35.6876 67.8657 35.6876H68.1075V36.0932H67.7097C67.5537 36.0932 67.4263 36.14 67.3275 36.2336C67.2287 36.3246 67.1793 36.4481 67.1793 36.6041V37.3568H67.9086V37.7H66.2199V37.3568ZM69.2136 37.1072H69.8181L69.3345 38.2655H69.003L69.2136 37.1072ZM69.432 36.2882C69.3072 36.2882 69.2188 36.2622 69.1668 36.2102C69.1174 36.1582 69.0927 36.0945 69.0927 36.0191V35.9177C69.0927 35.8423 69.1174 35.7786 69.1668 35.7266C69.2188 35.6746 69.3072 35.6486 69.432 35.6486C69.5568 35.6486 69.6439 35.6746 69.6933 35.7266C69.7453 35.7786 69.7713 35.8423 69.7713 35.9177V36.0191C69.7713 36.0945 69.7453 36.1582 69.6933 36.2102C69.6439 36.2622 69.5568 36.2882 69.432 36.2882ZM10.8764 39.736C11.0142 39.736 11.1143 39.7711 11.1767 39.8413C11.2417 39.9089 11.2742 39.9947 11.2742 40.0987V40.3132C11.2742 40.3808 11.2664 40.4406 11.2508 40.4926C11.2378 40.5446 11.2209 40.5901 11.2001 40.6291C11.1793 40.6681 11.1559 40.7045 11.1299 40.7383C11.1039 40.7695 11.0792 40.7994 11.0558 40.828C11.0116 40.88 10.9804 40.9255 10.9622 40.9645C10.9466 41.0009 10.9388 41.0399 10.9388 41.0815C10.9388 41.2505 11.1013 41.335 11.4263 41.335H11.75V41.6392H11.4263C11.1013 41.6392 10.9388 41.7237 10.9388 41.8927C10.9388 41.9343 10.9466 41.9746 10.9622 42.0136C10.9804 42.05 11.0116 42.0942 11.0558 42.1462C11.0792 42.1774 11.1039 42.2086 11.1299 42.2398C11.1559 42.271 11.1793 42.3074 11.2001 42.349C11.2235 42.388 11.2417 42.4335 11.2547 42.4855C11.2677 42.5349 11.2742 42.5934 11.2742 42.661V42.8755C11.2742 42.9795 11.2417 43.0653 11.1767 43.1329C11.1143 43.2031 11.0142 43.2382 10.8764 43.2382H10.19V42.934H10.9232V42.6844C10.9232 42.5804 10.9076 42.5011 10.8764 42.4465C10.8452 42.3893 10.8088 42.3347 10.7672 42.2827C10.723 42.2281 10.6814 42.1696 10.6424 42.1072C10.6034 42.0448 10.5839 41.972 10.5839 41.8888C10.5839 41.7796 10.6216 41.6925 10.697 41.6275C10.775 41.5599 10.8842 41.517 11.0246 41.4988V41.4754C10.8842 41.4572 10.775 41.4156 10.697 41.3506C10.6216 41.283 10.5839 41.1946 10.5839 41.0854C10.5839 41.0022 10.6034 40.9294 10.6424 40.867C10.6814 40.8046 10.723 40.7461 10.7672 40.6915C10.8088 40.6395 10.8452 40.5862 10.8764 40.5316C10.9076 40.4744 10.9232 40.3938 10.9232 40.2898V40.0402H10.19V39.736H10.8764Z" fill="#B4B4B4"/>
</g>
<defs>
<clipPath id="clip0_78_68">
<rect width="48" height="48" fill="white"/>
</clipPath>
</defs>
</svg>
